<?xml version="1.0" standalone="no"?><!DOCTYPE svg PUBLIC "-//W3C//DTD SVG 1.1//EN"
    "http://www.w3.org/Graphics/SVG/1.1/DTD/svg11.dtd">
<svg t="1693340456551" class="icon" viewBox="0 0 1024 1024" version="1.1"
    xmlns="http://www.w3.org/2000/svg" p-id="4017" xmlns:xlink="http://www.w3.org/1999/xlink"
    width="32" height="32">
    <path
        d="M512 942C274.9 942 82 749.11 82 512 82 274.9 274.9 82 512 82c237.11 0 430 192.9 430 430 0 237.11-192.89 430-430 430z m0-800c-204.02 0-370 165.98-370 370s165.98 370 370 370 370-165.98 370-370-165.98-370-370-370z"
        p-id="4018" fill="#000000"></path>
    <path
        d="M512 768.27c-16.57 0-30-13.44-30-30V285.73c0-16.57 13.43-30 30-30s30 13.43 30 30v452.54c0 16.56-13.43 30-30 30z"
        p-id="4019" fill="#000000"></path>
    <path
        d="M738.27 542H285.73c-16.57 0-30-13.43-30-30s13.43-30 30-30h452.54c16.56 0 30 13.43 30 30s-13.44 30-30 30z"
        p-id="4020" fill="#000000"></path>
</svg>