<?xml version="1.0" standalone="no"?><!DOCTYPE svg PUBLIC "-//W3C//DTD SVG 1.1//EN"
    "http://www.w3.org/Graphics/SVG/1.1/DTD/svg11.dtd">
<svg t="1693073076315" class="icon" viewBox="0 0 1024 1024" version="1.1"
    xmlns="http://www.w3.org/2000/svg" p-id="10200" xmlns:xlink="http://www.w3.org/1999/xlink"
    width="32" height="32">
    <path
        d="M866.4 718.8h-43.2v93.6h-93.6v43.2h93.6v93.6h43.2v-93.6H960v-43.2h-93.6zM294.4 589.1l40.7 40.7 164.1-164.1 164.1 164.1 40.7-40.7-204.8-204.9z"
        p-id="10201" fill="#000000"></path>
    <path
        d="M965.7 327.7c-24.6-60.8-60.8-115.2-107.5-162-46.8-46.7-101.3-82.9-162-107.5-117.2-47.6-251-47.6-368.4 0-60.7 24.6-115.2 60.8-162 107.5s-82.9 101.2-107.5 162c-23.8 58.6-35.9 120.6-35.9 184.2s12.1 125.6 35.9 184.2c24.6 60.8 60.8 115.3 107.5 162s101.3 82.9 162 107.5c58.7 23.8 120.6 35.9 184.2 35.9 63.6 0 125.6-12.1 184.2-35.9l-21.6-53.3c-103.4 42-221.7 42-325.2 0-53.6-21.8-101.6-53.7-142.9-94.9-41.3-41.3-73.2-89.3-94.9-142.9C90.6 622.8 80 568 80 511.9S90.6 401 111.6 349.3c21.7-53.5 53.6-101.6 94.9-142.9 41.3-41.2 89.3-73.1 142.9-94.9 103.5-42 221.7-42 325.2 0 53.5 21.8 101.6 53.7 142.9 94.9 41.2 41.3 73.1 89.4 94.9 142.9 21 51.8 31.6 106.5 31.6 162.6s-10.6 110.9-31.6 162.6l53.3 21.6c23.8-58.6 35.9-120.6 35.9-184.2s-12.1-125.6-35.9-184.2z"
        p-id="10202" fill="#000000"></path>
</svg>