<?xml version="1.0" standalone="no"?><!DOCTYPE svg PUBLIC "-//W3C//DTD SVG 1.1//EN"
    "http://www.w3.org/Graphics/SVG/1.1/DTD/svg11.dtd">
<svg t="1693073103257" class="icon" viewBox="0 0 1024 1024" version="1.1"
    xmlns="http://www.w3.org/2000/svg" p-id="11251" xmlns:xlink="http://www.w3.org/1999/xlink"
    width="32" height="32">
    <path
        d="M866.4 718.8h-43.2v93.6h-93.6v43.2h93.6v93.6h43.2v-93.6H960v-43.2h-93.6zM499.2 568.7L335.1 404.6l-40.7 40.7 204.8 204.9L704 445.3l-40.7-40.7z"
        p-id="11252" fill="#000000"></path>
    <path
        d="M965.7 327.7c-24.6-60.7-60.8-115.2-107.5-162s-101.3-82.9-162-107.5c-117.2-47.6-251.1-47.6-368.4 0-60.8 24.6-115.3 60.8-162 107.5-46.8 46.7-82.9 101.2-107.5 162-23.8 58.7-35.9 120.6-35.9 184.2s12.1 125.5 35.9 184.2c24.6 60.8 60.8 115.3 107.5 162 46.7 46.8 101.2 82.9 162 107.5 58.7 23.8 120.6 35.9 184.2 35.9 63.6 0 125.6-12.1 184.2-35.9l-21.6-53.4c-103.4 42-221.6 42-325.2 0-53.5-21.7-101.6-53.6-142.9-94.9-41.3-41.3-73.2-89.3-94.9-142.9C90.6 622.7 80 568 80 511.9s10.6-110.8 31.6-162.6c21.7-53.5 53.6-101.6 94.9-142.9 41.3-41.3 89.3-73.2 142.9-94.9 103.5-42.1 221.7-42 325.2 0 53.5 21.7 101.6 53.6 142.9 94.9 41.2 41.3 73.1 89.3 94.9 142.9 21 51.8 31.6 106.5 31.6 162.6s-10.6 110.8-31.6 162.6l53.3 21.7c23.8-58.7 35.9-120.6 35.9-184.2s-12.1-125.6-35.9-184.3z"
        p-id="11253" fill="#000000"></path>
</svg>