<?xml version="1.0" standalone="no"?><!DOCTYPE svg PUBLIC "-//W3C//DTD SVG 1.1//EN" "http://www.w3.org/Graphics/SVG/1.1/DTD/svg11.dtd"><svg t="1734591929208" class="icon" viewBox="0 0 1024 1024" version="1.1" xmlns="http://www.w3.org/2000/svg" p-id="7236" xmlns:xlink="http://www.w3.org/1999/xlink" width="32" height="32"><path d="M287.488 366.336a15.36 15.36 0 0 1-15.36-15.36V223.7952a15.36 15.36 0 0 1 30.72 0v127.1808a15.36 15.36 0 0 1-15.36 15.36z" fill="#099DFD" p-id="7237"></path><path d="M351.0784 302.7456H223.8464a15.36 15.36 0 0 1 0-30.72h127.232a15.36 15.36 0 0 1 0 30.72zM736.512 815.4112a15.36 15.36 0 0 1-15.36-15.36v-127.1808a15.36 15.36 0 0 1 30.72 0v127.1808a15.36 15.36 0 0 1-15.36 15.36z" fill="#099DFD" p-id="7238"></path><path d="M800.1536 751.8208h-127.232a15.36 15.36 0 0 1 0-30.72h127.232a15.36 15.36 0 0 1 0 30.72zM445.7984 459.3664a14.592 14.592 0 0 1-4.6592-0.768 15.36 15.36 0 0 1-10.24-19.2512L500.736 220.16a15.36 15.36 0 0 1 29.2864 9.2672l-69.632 219.1872a15.36 15.36 0 0 1-14.592 10.752z" fill="#099DFD" p-id="7239"></path><path d="M580.5056 461.6192A15.36 15.36 0 0 1 565.76 450.56L500.6336 229.0688a15.36 15.36 0 1 1 29.44-8.6528l65.1776 221.4912a15.36 15.36 0 0 1-14.7456 19.712zM224.256 524.4928a15.36 15.36 0 0 1-4.096-30.1056l221.2864-65.1264a15.36 15.36 0 0 1 8.6528 29.44l-221.4912 65.1776a15.9744 15.9744 0 0 1-4.352 0.6144z" fill="#099DFD" p-id="7240"></path><path d="M443.4944 593.92a16.64 16.64 0 0 1-4.6592-0.7168L219.5968 523.776a15.36 15.36 0 1 1 9.3184-29.2864l219.2384 69.5808a15.36 15.36 0 0 1-4.6592 30.0032z" fill="#099DFD" p-id="7241"></path><path d="M508.6208 815.5648a15.36 15.36 0 0 1-14.6944-11.008l-65.1776-221.4912a15.36 15.36 0 0 1 29.4912-8.704l65.1264 221.5424a15.36 15.36 0 0 1-10.24 19.0464 15.9744 15.9744 0 0 1-4.5056 0.6144z" fill="#099DFD" p-id="7242"></path><path d="M508.672 815.5648a14.4896 14.4896 0 0 1-4.6592-0.7168 15.36 15.36 0 0 1-10.24-19.3024l69.632-219.2384a15.36 15.36 0 1 1 29.2352 9.3184L523.264 804.864a15.36 15.36 0 0 1-14.592 10.7008z" fill="#099DFD" p-id="7243"></path><path d="M578.2016 596.3264a15.36 15.36 0 0 1-4.3008-30.1056l221.4912-65.1264a15.36 15.36 0 1 1 8.6528 29.4912l-221.4912 65.1264a15.9744 15.9744 0 0 1-4.352 0.6144z" fill="#099DFD" p-id="7244"></path><path d="M799.744 531.2a16.3328 16.3328 0 0 1-4.6592-0.7168L575.8464 460.8a15.36 15.36 0 1 1 9.3184-29.2864l219.2384 69.5808a15.36 15.36 0 0 1-4.6592 30.0032z" fill="#099DFD" p-id="7245"></path></svg>