<?xml version="1.0" standalone="no"?><!DOCTYPE svg PUBLIC "-//W3C//DTD SVG 1.1//EN" "http://www.w3.org/Graphics/SVG/1.1/DTD/svg11.dtd"><svg t="1733545784826" class="icon" viewBox="0 0 1024 1024" version="1.1" xmlns="http://www.w3.org/2000/svg" p-id="5514" xmlns:xlink="http://www.w3.org/1999/xlink" width="32" height="32"><path d="M780.8 521.6512v-204.8q0-26.5216-18.7392-45.2608-18.7648-18.7392-45.2608-18.7392H307.2q-26.5216 0-45.2608 18.7392T243.2 316.8512v204.8q0 1.8944-0.1792 3.7632t-0.5632 3.7376q-0.3584 1.8432-0.9216 3.6352-0.5376 1.792-1.28 3.5584-0.6912 1.7408-1.5872 3.4048t-1.9456 3.2256q-1.024 1.5872-2.2272 3.0464-1.2032 1.4592-2.56 2.7904-1.3056 1.3312-2.7648 2.5088-1.4592 1.2032-3.0464 2.2528-1.536 1.0496-3.2256 1.9456-1.664 0.896-3.4048 1.6128-1.7408 0.7168-3.5584 1.28-1.792 0.512-3.6352 0.896-1.8688 0.384-3.7376 0.5632-1.8688 0.1792-3.7632 0.1792t-3.7632-0.1792q-1.8688-0.1792-3.7376-0.5632-1.8432-0.3584-3.6352-0.9216-1.792-0.5376-3.5584-1.28-1.7408-0.6912-3.4048-1.5872t-3.2256-1.9456q-1.5872-1.024-3.0464-2.2528-1.4592-1.1776-2.7904-2.5088-1.3312-1.3312-2.5344-2.816-1.1776-1.4336-2.2272-3.0208-1.0496-1.536-1.9456-3.2256-0.896-1.664-1.6128-3.4048-0.7168-1.7408-1.28-3.5584-0.512-1.792-0.896-3.6352-0.384-1.8688-0.5632-3.7376-0.1792-1.8688-0.1792-3.7632v-204.8q0-58.3168 41.216-99.584 41.2672-41.216 99.584-41.216h409.6q58.3168 0 99.584 41.216 41.216 41.2672 41.216 99.584v204.8q0 1.8944-0.1792 3.7632t-0.5632 3.7376q-0.3584 1.8432-0.9216 3.6352-0.5376 1.792-1.28 3.5584-0.6912 1.7408-1.5872 3.4048t-1.9456 3.2256q-1.024 1.5872-2.2272 3.0464-1.2032 1.4592-2.56 2.7904-1.3056 1.3312-2.7648 2.5088-1.4592 1.2032-3.0464 2.2528-1.536 1.0496-3.2256 1.9456-1.664 0.896-3.4048 1.6128-1.7408 0.7168-3.5584 1.28-1.792 0.512-3.6352 0.896-1.8688 0.384-3.7376 0.5632-1.8688 0.1792-3.7632 0.1792t-3.7632-0.1792q-1.8688-0.1792-3.7376-0.5632-1.8432-0.3584-3.6352-0.9216-1.792-0.5376-3.5584-1.28-1.7408-0.6912-3.4048-1.5872t-3.2256-1.9456q-1.5872-1.024-3.0464-2.2528-1.4592-1.1776-2.7904-2.5088-1.3312-1.3312-2.5344-2.816-1.1776-1.4336-2.2272-3.0208-1.0496-1.536-1.9456-3.2256-0.896-1.664-1.6128-3.4048-0.7168-1.7408-1.28-3.5584-0.512-1.792-0.896-3.6352-0.384-1.8688-0.5632-3.7376-0.1792-1.8688-0.1792-3.7632z m76.8 0q0 1.8944-0.1792 3.7632t-0.5632 3.7376q-0.3584 1.8432-0.9216 3.6352-0.5376 1.792-1.28 3.5584-0.6912 1.7408-1.5872 3.4048t-1.9456 3.2256q-1.024 1.5872-2.2272 3.0464-1.2032 1.4592-2.56 2.7904-1.3056 1.3312-2.7648 2.5088-1.4592 1.2032-3.0464 2.2528-1.536 1.0496-3.2256 1.9456-1.664 0.896-3.4048 1.6128-1.7408 0.7168-3.5584 1.28-1.792 0.512-3.6352 0.896-1.8688 0.384-3.7376 0.5632-1.8688 0.1792-3.7632 0.1792t-3.7632-0.1792q-1.8688-0.1792-3.7376-0.5632-1.8432-0.3584-3.6352-0.9216-1.792-0.5376-3.5584-1.28-1.7408-0.6912-3.4048-1.5872t-3.2256-1.9456q-1.5872-1.024-3.0464-2.2528-1.4592-1.1776-2.7904-2.5088-1.3312-1.3312-2.5344-2.816-1.1776-1.4336-2.2272-3.0208-1.0496-1.536-1.9456-3.2256-0.896-1.664-1.6128-3.4048-0.7168-1.7408-1.28-3.5584-0.512-1.792-0.896-3.6352-0.384-1.8688-0.5632-3.7376-0.1792-1.8688-0.1792-3.7632t0.1792-3.7632q0.1792-1.8688 0.5632-3.7376 0.3584-1.8432 0.9216-3.6352 0.5376-1.792 1.28-3.5584 0.6912-1.7408 1.5872-3.4048t1.9456-3.2256q1.024-1.5872 2.2272-3.0464 1.2032-1.4592 2.56-2.7904 1.3056-1.3312 2.7648-2.5344 1.4592-1.1776 3.0464-2.2272 1.536-1.0496 3.2256-1.9456 1.664-0.896 3.4048-1.6128 1.7408-0.7168 3.5584-1.28 1.792-0.512 3.6352-0.896 1.8688-0.384 3.7376-0.5632 1.8688-0.1792 3.7632-0.1792t3.7632 0.1792q1.8688 0.1792 3.7376 0.5632 1.8432 0.3584 3.6352 0.9216 1.792 0.5376 3.5584 1.28 1.7408 0.6912 3.4048 1.5872t3.2256 1.9456q1.5872 1.024 3.0464 2.2272 1.4592 1.2032 2.7904 2.56 1.3312 1.3056 2.5344 2.7648 1.1776 1.4592 2.2272 3.0464 1.0496 1.536 1.9456 3.2256 0.896 1.664 1.6128 3.4048 0.7168 1.7408 1.28 3.5584 0.512 1.792 0.896 3.6352 0.384 1.8688 0.5632 3.7376 0.1792 1.8688 0.1792 3.7632z m-614.4 0q0 1.8944-0.1792 3.7632t-0.5632 3.7376q-0.3584 1.8432-0.9216 3.6352-0.5376 1.792-1.28 3.5584-0.6912 1.7408-1.5872 3.4048t-1.9456 3.2256q-1.024 1.5872-2.2272 3.0464-1.2032 1.4592-2.56 2.7904-1.3056 1.3312-2.7648 2.5088-1.4592 1.2032-3.0464 2.2528-1.536 1.0496-3.2256 1.9456-1.664 0.896-3.4048 1.6128-1.7408 0.7168-3.5584 1.28-1.792 0.512-3.6352 0.896-1.8688 0.384-3.7376 0.5632-1.8688 0.1792-3.7632 0.1792t-3.7632-0.1792q-1.8688-0.1792-3.7376-0.5632-1.8432-0.3584-3.6352-0.9216-1.792-0.5376-3.5584-1.28-1.7408-0.6912-3.4048-1.5872t-3.2256-1.9456q-1.5872-1.024-3.0464-2.2528-1.4592-1.1776-2.7904-2.5088-1.3312-1.3312-2.5344-2.816-1.1776-1.4336-2.2272-3.0208-1.0496-1.536-1.9456-3.2256-0.896-1.664-1.6128-3.4048-0.7168-1.7408-1.28-3.5584-0.512-1.792-0.896-3.6352-0.384-1.8688-0.5632-3.7376-0.1792-1.8688-0.1792-3.7632t0.1792-3.7632q0.1792-1.8688 0.5632-3.7376 0.3584-1.8432 0.9216-3.6352 0.5376-1.792 1.28-3.5584 0.6912-1.7408 1.5872-3.4048t1.9456-3.2256q1.024-1.5872 2.2272-3.0464 1.2032-1.4592 2.56-2.7904 1.3056-1.3312 2.7648-2.5344 1.4592-1.1776 3.0464-2.2272 1.536-1.0496 3.2256-1.9456 1.664-0.896 3.4048-1.6128 1.7408-0.7168 3.5584-1.28 1.792-0.512 3.6352-0.896 1.8688-0.384 3.7376-0.5632 1.8688-0.1792 3.7632-0.1792t3.7632 0.1792q1.8688 0.1792 3.7376 0.5632 1.8432 0.3584 3.6352 0.9216 1.792 0.5376 3.5584 1.28 1.7408 0.6912 3.4048 1.5872t3.2256 1.9456q1.5872 1.024 3.0464 2.2272 1.4592 1.2032 2.7904 2.56 1.3312 1.3056 2.5344 2.7648 1.1776 1.4592 2.2272 3.0464 1.0496 1.536 1.9456 3.2256 0.896 1.664 1.6128 3.4048 0.7168 1.7408 1.28 3.5584 0.512 1.792 0.896 3.6352 0.384 1.8688 0.5632 3.7376 0.1792 1.8688 0.1792 3.7632zM243.2 736.6912q0 22.272 15.744 38.016 15.744 15.744 38.016 15.744 22.272 0 38.016-15.744 15.744-15.744 15.744-38.016 0-22.272-15.744-38.016-15.744-15.744-38.016-15.744-22.272 0-38.016 15.744-15.744 15.744-15.744 38.016z m-76.8 0q0-54.0928 38.2464-92.3136 38.2464-38.2464 92.3136-38.2464t92.3136 38.2464q38.2464 38.2208 38.2464 92.3136 0 54.0672-38.2464 92.3136-38.2464 38.2464-92.3136 38.2464t-92.3136-38.2464Q166.4 790.784 166.4 736.6912z" fill="#6C6C6C" p-id="5515"></path><path d="M258.944 774.7072q15.744 15.744 38.016 15.744 22.272 0 38.016-15.744 8.192-8.192 65.28-89.9072 131.0208-187.52 265.1136-370.176 1.1008-1.536 2.3808-2.944 1.2544-1.408 2.6368-2.6624 1.3824-1.28 2.8928-2.4064 1.536-1.152 3.1232-2.1248 1.6128-0.9728 3.328-1.792 1.6896-0.8192 3.4816-1.4592 1.7664-0.64 3.584-1.1008 1.8432-0.4864 3.712-0.768 1.8432-0.256 3.7376-0.384 1.8944-0.1024 3.7632 0 1.8944 0.0768 3.7632 0.3328 1.8688 0.256 3.6864 0.7168 1.8432 0.4608 3.6096 1.0752 1.792 0.64 3.5072 1.4336 1.6896 0.7936 3.328 1.7664 1.6128 0.9472 3.1488 2.048 1.5104 1.1264 2.9184 2.4064 1.408 1.2544 2.6624 2.6368 1.28 1.3824 2.4064 2.8928 1.152 1.536 2.1248 3.1232 0.9728 1.6128 1.792 3.328 0.8192 1.6896 1.4592 3.4816 0.64 1.7664 1.1008 3.584 0.4608 1.8432 0.768 3.712 0.256 1.8432 0.384 3.7376 0.1024 1.8944 0 3.7632-0.0768 1.8944-0.3328 3.7632-0.256 1.8688-0.7168 3.6864-0.4608 1.8432-1.0752 3.6096-0.64 1.792-1.4336 3.5072-0.7936 1.6896-1.7664 3.328-0.9472 1.6128-2.048 3.1488-133.5808 181.9392-264.064 368.7168-60.9536 87.2448-73.9584 100.224-38.2208 38.2464-92.3136 38.2464-54.0928 0-92.3136-38.2464-1.3312-1.3312-2.56-2.7904-1.1776-1.4592-2.2272-3.0208-1.024-1.5616-1.92-3.2256-0.896-1.664-1.6128-3.4048-0.7424-1.7664-1.28-3.5584t-0.9216-3.6608q-0.3584-1.8432-0.5376-3.712-0.2048-1.8944-0.2048-3.7888 0-1.8688 0.2048-3.7632 0.1792-1.8688 0.5376-3.712 0.384-1.8432 0.9216-3.6608 0.5376-1.792 1.28-3.5584 0.7168-1.7408 1.6128-3.4048 0.8704-1.664 1.92-3.2256 1.0496-1.5616 2.2528-3.0208 1.2032-1.4592 2.5344-2.816 1.3312-1.3056 2.7904-2.5088 1.4592-1.2032 3.0208-2.2528 1.5616-1.024 3.2256-1.92 1.664-0.896 3.4048-1.6128 1.7408-0.7424 3.5584-1.28 1.792-0.5376 3.6608-0.9216 1.8432-0.3584 3.712-0.5376 1.8944-0.1792 3.7632-0.1792 1.8944 0 3.7632 0.1792 1.8944 0.1792 3.7376 0.5376 1.8432 0.384 3.6608 0.9216 1.792 0.5376 3.5328 1.28 1.7664 0.7168 3.4304 1.6128 1.6384 0.8704 3.2256 1.92 1.5616 1.0496 3.0208 2.2528 1.4592 1.2032 2.816 2.5344z m11.264 27.136q0 1.8944-0.2048 3.7888-0.1792 1.8688-0.5376 3.712-0.384 1.8432-0.9216 3.6608-0.5632 1.792-1.28 3.5584-0.7168 1.7408-1.6128 3.4048-0.8704 1.664-1.92 3.2256-1.0496 1.5616-2.2528 3.0208-1.2032 1.4592-2.5344 2.816-1.3312 1.3056-2.7904 2.5088-1.4592 1.2032-3.0208 2.2528-1.5872 1.024-3.2512 1.92-1.6384 0.896-3.4048 1.6128-1.7408 0.7424-3.5328 1.28t-3.6608 0.9216q-1.8432 0.3584-3.7376 0.5376-1.8688 0.2048-3.7632 0.2048-1.8688 0-3.7632-0.2048-1.8688-0.1792-3.712-0.5376-1.8688-0.384-3.6608-0.9216-1.792-0.5376-3.5584-1.28-1.7408-0.7168-3.4048-1.6128-1.664-0.8704-3.2256-1.92-1.5616-1.0496-3.0208-2.2528-1.4592-1.2032-2.816-2.5344-1.3056-1.3312-2.5088-2.7904-1.2032-1.4592-2.2528-3.0208-1.024-1.5616-1.92-3.2256-0.896-1.664-1.6128-3.4048-0.7424-1.7664-1.28-3.5584t-0.9216-3.6608q-0.3584-1.8432-0.5376-3.712-0.2048-1.8944-0.2048-3.7632 0-1.8944 0.2048-3.7888 0.1792-1.8688 0.5376-3.712 0.384-1.8432 0.9216-3.6608 0.5376-1.792 1.28-3.5584 0.7168-1.7408 1.6128-3.4048 0.8704-1.664 1.92-3.2256 1.0496-1.5616 2.2528-3.0208 1.2032-1.4592 2.5344-2.816 1.3312-1.3056 2.7904-2.5088 1.4592-1.2032 3.0208-2.2528 1.5616-1.024 3.2256-1.92 1.664-0.896 3.4048-1.6128 1.7408-0.7424 3.5584-1.28 1.792-0.5376 3.6608-0.9216 1.8432-0.3584 3.712-0.5376 1.8944-0.1792 3.7632-0.1792 1.8944 0 3.7632 0.1792 1.8944 0.1792 3.7376 0.5376 1.8432 0.384 3.6608 0.9216 1.792 0.5376 3.5328 1.28 1.7664 0.7168 3.4048 1.6128 1.664 0.8704 3.2512 1.92 1.5616 1.0496 3.0208 2.2528 1.4592 1.2032 2.816 2.5344 1.3056 1.3312 2.5088 2.7904 1.2032 1.4592 2.2528 3.0208 1.024 1.5616 1.92 3.2256 0.896 1.664 1.6128 3.4048 0.7168 1.7664 1.28 3.584 0.5376 1.792 0.9216 3.6352 0.3584 1.8432 0.5376 3.712 0.1792 1.8944 0.1792 3.7888zM734.72 337.3568q0 1.8944-0.1792 3.7632t-0.5632 3.7376q-0.3584 1.8432-0.9216 3.6352-0.5376 1.792-1.28 3.5584-0.6912 1.7408-1.5872 3.4048t-1.9456 3.2256q-1.024 1.5872-2.2528 3.0464-1.1776 1.4592-2.5088 2.7904-1.3312 1.3312-2.816 2.5088-1.4336 1.2032-3.0208 2.2528-1.536 1.0496-3.2256 1.9456-1.664 0.896-3.4048 1.6128-1.7408 0.7168-3.5584 1.28-1.792 0.512-3.6352 0.896-1.8688 0.384-3.7376 0.5632-1.8688 0.1792-3.7632 0.1792t-3.7632-0.1792q-1.8688-0.1792-3.7376-0.5632-1.8432-0.3584-3.6352-0.9216-1.792-0.5376-3.5584-1.28-1.7408-0.6912-3.4048-1.5872t-3.2256-1.9456q-1.5872-1.024-3.0464-2.2528-1.4592-1.1776-2.7904-2.5088-1.3312-1.3312-2.5344-2.816-1.1776-1.4336-2.2272-3.0208-1.0496-1.5616-1.9456-3.2256-0.896-1.664-1.6128-3.4048-0.7168-1.7408-1.28-3.5584-0.512-1.792-0.896-3.6352-0.384-1.8688-0.5632-3.7376-0.1792-1.8688-0.1792-3.7632t0.1792-3.7632q0.1792-1.8688 0.5632-3.7376 0.3584-1.8432 0.9216-3.6352 0.5376-1.8176 1.28-3.584 0.6912-1.7152 1.5872-3.3792t1.9456-3.2256q1.024-1.5872 2.2272-3.0464 1.2032-1.4592 2.56-2.7904 1.3056-1.3312 2.7648-2.5344 1.4592-1.1776 3.0464-2.2272 1.536-1.0496 3.2256-1.9456 1.664-0.896 3.4048-1.6128 1.7408-0.7168 3.5584-1.28 1.792-0.512 3.6352-0.896 1.8688-0.384 3.7376-0.5632 1.8688-0.1792 3.7632-0.1792t3.7632 0.1792q1.8688 0.1792 3.7376 0.5632 1.8432 0.3584 3.6352 0.9216 1.8176 0.512 3.5584 1.28 1.7408 0.6912 3.4048 1.5872t3.2256 1.9456q1.5872 1.024 3.0464 2.2272 1.4592 1.2032 2.7904 2.56 1.3312 1.3056 2.5088 2.7648 1.2032 1.4592 2.2528 3.0464 1.0496 1.536 1.9456 3.2256 0.896 1.664 1.6128 3.4048 0.7168 1.7408 1.28 3.5584 0.512 1.792 0.896 3.6352 0.384 1.8688 0.5632 3.7376 0.1792 1.8688 0.1792 3.7632zM673.28 736.6912q0 22.272 15.744 38.016 15.744 15.744 38.016 15.744 22.272 0 38.016-15.744 15.744-15.744 15.744-38.016 0-22.272-15.744-38.016-15.744-15.744-38.016-15.744-22.272 0-38.016 15.744-15.744 15.744-15.744 38.016z m-76.8 0q0-54.0928 38.2464-92.3136 38.2464-38.2464 92.3136-38.2464t92.3136 38.2464q38.2464 38.2208 38.2464 92.3136 0 54.0672-38.2464 92.3136-38.2464 38.2464-92.3136 38.2464t-92.3136-38.2464Q596.48 790.784 596.48 736.6912z" fill="#6C6C6C" p-id="5516"></path><path d="M358.656 314.624q134.0672 182.656 265.088 370.176 57.088 81.6896 65.28 89.9072 15.744 15.744 38.016 15.744 22.272 0 38.016-15.744 1.3312-1.3312 2.7904-2.5344 1.4592-1.2032 3.0208-2.2528 1.5616-1.024 3.2256-1.92 1.664-0.896 3.4304-1.6128 1.7408-0.7168 3.5328-1.28 1.792-0.5376 3.6608-0.9216 1.8432-0.3584 3.7376-0.5376 1.8688-0.1792 3.7632-0.1792 1.8688 0 3.7632 0.1792 1.8688 0.1792 3.712 0.5376 1.8432 0.384 3.6608 0.9216 1.792 0.5376 3.5584 1.28 1.7408 0.7168 3.4048 1.6128 1.664 0.8704 3.2256 1.92 1.5616 1.0496 3.0208 2.2528 1.4592 1.2032 2.816 2.5344 1.3056 1.3312 2.5088 2.7904 1.2032 1.4592 2.2528 3.0208 1.024 1.5616 1.92 3.2256 0.896 1.664 1.6128 3.4048 0.7424 1.7664 1.28 3.584 0.5376 1.792 0.9216 3.6352 0.3584 1.8432 0.5376 3.712 0.2048 1.8944 0.2048 3.7632 0 1.8944-0.2048 3.7888-0.1792 1.8688-0.5376 3.712-0.384 1.8432-0.9216 3.6608-0.5376 1.792-1.28 3.5584-0.7168 1.7408-1.5872 3.4048-0.896 1.664-1.9456 3.2256-1.0496 1.5616-2.2528 3.0208-1.2032 1.4592-2.5344 2.816-38.2208 38.2208-92.3136 38.2208-54.0672 0-92.3136-38.2464-13.0048-12.9792-73.9584-100.224-130.5088-186.7776-264.0384-368.7168-1.1264-1.536-2.0736-3.1488-0.9728-1.6384-1.792-3.328-0.768-1.7152-1.408-3.5072-0.6144-1.792-1.0752-3.584-0.4352-1.8432-0.7168-3.712-0.256-1.8688-0.3584-3.7632-0.0768-1.8688 0.0256-3.7632t0.384-3.7376q0.3072-1.8688 0.768-3.712 0.4608-1.8176 1.1008-3.584 0.64-1.792 1.4592-3.4816 0.8192-1.7152 1.792-3.328 0.9728-1.6128 2.1248-3.1232 1.1264-1.5104 2.4064-2.8928 1.28-1.3824 2.6624-2.6368 1.408-1.28 2.9184-2.3808 1.536-1.1264 3.1488-2.0736 1.6384-0.9728 3.328-1.792 1.7152-0.768 3.5072-1.408 1.792-0.6144 3.584-1.0752 1.8432-0.4352 3.712-0.7168 1.8688-0.256 3.7632-0.3584 1.8688-0.0768 3.7632 0.0256t3.7376 0.384q1.8688 0.2816 3.712 0.768 1.8176 0.4608 3.584 1.1008 1.792 0.64 3.4816 1.4592t3.328 1.792q1.6128 0.9728 3.1232 2.1248 1.4848 1.1264 2.8928 2.4064 1.3824 1.28 2.6368 2.6624 1.28 1.408 2.3808 2.9184z m7.424 22.7072q0 1.8944-0.1792 3.7632t-0.5632 3.7376q-0.3584 1.8432-0.9216 3.6352-0.5376 1.792-1.28 3.5584-0.6912 1.7408-1.5872 3.4048t-1.9456 3.2256q-1.024 1.5872-2.2272 3.0464-1.2032 1.4592-2.56 2.7904-1.3056 1.3312-2.7648 2.5088-1.4592 1.2032-3.0464 2.2528-1.536 1.0496-3.2256 1.9456-1.664 0.896-3.4048 1.6128-1.7408 0.7168-3.5584 1.28-1.792 0.512-3.6352 0.896-1.8688 0.384-3.7376 0.5632-1.8688 0.1792-3.7632 0.1792t-3.7632-0.1792q-1.8688-0.1792-3.7376-0.5632-1.8432-0.3584-3.6352-0.9216-1.792-0.5376-3.5584-1.28-1.7408-0.6912-3.4048-1.5872t-3.2256-1.9456q-1.5872-1.024-3.0464-2.2528-1.4592-1.1776-2.7904-2.5088-1.3312-1.3312-2.5344-2.816-1.1776-1.4336-2.2272-3.0208-1.0496-1.5616-1.9456-3.2256-0.896-1.664-1.6128-3.4048-0.7168-1.7408-1.28-3.5584-0.512-1.792-0.896-3.6352-0.384-1.8688-0.5632-3.7376-0.1792-1.8688-0.1792-3.7632t0.1792-3.7632q0.1792-1.8688 0.5632-3.7376 0.3584-1.8432 0.9216-3.6352 0.5376-1.8176 1.28-3.584 0.6912-1.7152 1.5872-3.3792t1.9456-3.2256q1.024-1.5872 2.2272-3.0464 1.2032-1.4592 2.56-2.7904 1.3056-1.3312 2.7648-2.5344 1.4592-1.1776 3.0464-2.2272 1.536-1.0496 3.2256-1.9456 1.664-0.896 3.4048-1.6128 1.7408-0.7168 3.5584-1.28 1.792-0.512 3.6352-0.896 1.8688-0.384 3.7376-0.5632 1.8688-0.1792 3.7632-0.1792t3.7632 0.1792q1.8688 0.1792 3.7376 0.5632 1.8432 0.3584 3.6352 0.9216 1.792 0.512 3.5584 1.28 1.7408 0.6912 3.4048 1.5872t3.2256 1.9456q1.5872 1.024 3.0464 2.2272 1.4592 1.2032 2.7904 2.56 1.3312 1.3056 2.5344 2.7648 1.1776 1.4592 2.2272 3.0464 1.0496 1.536 1.9456 3.2256 0.896 1.664 1.6128 3.4048 0.7168 1.7408 1.28 3.5584 0.512 1.792 0.896 3.6352 0.384 1.8688 0.5632 3.7376 0.1792 1.8688 0.1792 3.7632z m464.5376 464.5376q0 1.8688-0.2048 3.7632-0.1792 1.8688-0.5376 3.712-0.384 1.8432-0.9216 3.6608-0.5376 1.792-1.28 3.5584-0.7168 1.7408-1.6128 3.4048-0.8704 1.664-1.92 3.2256-1.0496 1.5616-2.2528 3.0208-1.2032 1.4592-2.5344 2.816-1.3312 1.3056-2.7904 2.5088-1.4592 1.2032-3.0208 2.2528-1.5616 1.024-3.2256 1.92-1.664 0.896-3.4048 1.6128-1.7408 0.7424-3.5584 1.28-1.792 0.5376-3.6608 0.9216-1.8432 0.3584-3.712 0.5376-1.8944 0.2048-3.7632 0.2048-1.8944 0-3.7632-0.2048-1.8944-0.1792-3.7376-0.5376-1.8432-0.384-3.6608-0.9216-1.792-0.5376-3.5328-1.28-1.7408-0.7168-3.4048-1.6128-1.664-0.8704-3.2512-1.92-1.5616-1.0496-3.0208-2.2528-1.4592-1.2032-2.816-2.5344-1.3056-1.3312-2.5088-2.7904-1.2032-1.4592-2.2528-3.0208-1.024-1.5616-1.92-3.2256-0.896-1.664-1.6128-3.4048-0.7168-1.7664-1.28-3.5584-0.5376-1.792-0.9216-3.6608-0.3584-1.8432-0.5376-3.712-0.1792-1.8944-0.1792-3.7632 0-1.8944 0.1792-3.7888 0.1792-1.8688 0.5376-3.712 0.384-1.8432 0.9216-3.6608 0.5632-1.792 1.28-3.5584 0.7168-1.7408 1.6128-3.4048 0.8704-1.664 1.92-3.2256 1.0496-1.5616 2.2528-3.0208 1.2032-1.4592 2.5344-2.816 1.3312-1.3056 2.7904-2.5088 1.4592-1.2032 3.0208-2.2528 1.5872-1.024 3.2512-1.92 1.664-0.896 3.4048-1.6128 1.7408-0.7424 3.5328-1.28t3.6608-0.9216q1.8432-0.3584 3.7376-0.5376 1.8688-0.1792 3.7632-0.1792 1.8688 0 3.7632 0.1792 1.8688 0.1792 3.712 0.5376 1.8688 0.384 3.6608 0.9216 1.792 0.5376 3.5584 1.28 1.7408 0.7168 3.4048 1.6128 1.664 0.8704 3.2256 1.92 1.5616 1.0496 3.0208 2.2528 1.4592 1.2032 2.816 2.5344 1.3056 1.3312 2.5088 2.7904 1.2032 1.4592 2.2528 3.0208 1.024 1.5616 1.92 3.2256 0.896 1.664 1.6128 3.4048 0.7424 1.7664 1.28 3.584 0.5376 1.792 0.9216 3.6352 0.3584 1.8432 0.5376 3.712 0.2048 1.8944 0.2048 3.7888z" fill="#6C6C6C" p-id="5517"></path></svg>