<?xml version="1.0" standalone="no"?><!DOCTYPE svg PUBLIC "-//W3C//DTD SVG 1.1//EN" "http://www.w3.org/Graphics/SVG/1.1/DTD/svg11.dtd"><svg t="1730112564560" class="icon" viewBox="0 0 1024 1024" version="1.1" xmlns="http://www.w3.org/2000/svg" p-id="7263" width="32" height="32" xmlns:xlink="http://www.w3.org/1999/xlink"><path d="M560.7 512l389.2-389.2c13.5-13.5 13.5-35.3 0-48.7-13.5-13.5-35.3-13.5-48.7 0L512 463.3 122.8 74.1c-13.5-13.5-35.3-13.5-48.7 0-13.5 13.5-13.5 35.3 0 48.7L463.3 512 74.1 901.2c-13.5 13.5-13.5 35.3 0 48.7 6.7 6.7 15.5 10.1 24.4 10.1 8.8 0 17.6-3.4 24.4-10.1L512 560.7l389.2 389.2c6.7 6.7 15.5 10.1 24.4 10.1 8.8 0 17.6-3.4 24.4-10.1 13.5-13.5 13.5-35.3 0-48.7L560.7 512z" p-id="7264"></path></svg>