<?xml version="1.0" standalone="no"?><!DOCTYPE svg PUBLIC "-//W3C//DTD SVG 1.1//EN" "http://www.w3.org/Graphics/SVG/1.1/DTD/svg11.dtd"><svg t="1714382712024" class="icon" viewBox="0 0 1024 1024" version="1.1" xmlns="http://www.w3.org/2000/svg" p-id="15038" xmlns:xlink="http://www.w3.org/1999/xlink" width="32" height="32"><path d="M886.4 96H137.6a41.664 41.664 0 0 0-41.6 41.6v748.8c0 22.976 18.688 41.6 41.6 41.6h748.8a41.6 41.6 0 0 0 41.6-41.6V137.6a41.664 41.664 0 0 0-41.6-41.6z m-17.856 772.544H155.456V155.456h713.152v713.088z" p-id="15039"></path><path d="M288 482.944h448v51.2h-448zM288 372.096h448v51.2h-448zM288 598.144h448v51.2h-448zM512 192L416 320h192zM512 832l96-128h-192z" p-id="15040"></path></svg>