<?xml version="1.0" standalone="no"?><!DOCTYPE svg PUBLIC "-//W3C//DTD SVG 1.1//EN" "http://www.w3.org/Graphics/SVG/1.1/DTD/svg11.dtd"><svg t="1717352922200" class="icon" viewBox="0 0 1024 1024" version="1.1" xmlns="http://www.w3.org/2000/svg" p-id="1788" width="32" height="32" xmlns:xlink="http://www.w3.org/1999/xlink"><path d="M421.53728 217.856H64.86272C55.91552 217.856 0 217.856 0 282.71616v356.6848C0 704.256 64.86272 704.256 64.86272 704.256h356.67456C486.4 704.256 486.4 639.40096 486.4 639.40096v-356.6848C486.4 217.856 430.51776 217.856 421.53728 217.856z m-0.0384 453.94944l-122.30656-127.40096-66.7008 57.89952-100.07808-92.6336-100.08064 92.6336V282.68288c0-32.40704 23.47008-32.40704 32.41216-32.40704h356.67712c8.98048 0 32.448 0 32.448 32.40704v356.71808h0.07168c0.00512 0 0.00512 32.40448-32.44288 32.40448z" fill="#040000" p-id="1789"></path><path d="M324.2624 347.32032c-35.85536 0-64.9344 29.11232-64.9344 65.03936 0 35.89376 29.07904 65.05728 64.9344 65.05728 35.85792 0 64.93952-29.16352 64.93952-65.05728 0-35.92704-29.0816-65.03936-64.93952-65.03936zM38.4 760.064h409.6v46.08H38.4zM959.13472 217.856H602.46272c-8.9472 0-64.86272 0-64.86272 64.86016v356.6848c0 64.85504 64.86272 64.85504 64.86272 64.85504h356.672C1024 704.256 1024 639.40096 1024 639.40096v-356.6848C1024 217.856 968.11776 217.856 959.13472 217.856z m-0.03584 453.94944l-122.30912-127.40096-66.69824 57.89952-100.07808-92.6336-100.08064 92.6336V282.68288c0-32.40704 23.47008-32.40704 32.41216-32.40704h356.67456c8.98304 0 32.45056 0 32.45056 32.40704v356.71808h0.07168c0.00512 0 0.00512 32.40448-32.44288 32.40448z" fill="#040000" p-id="1790"></path><path d="M861.85984 347.32032c-35.85536 0-64.93184 29.11232-64.93184 65.03936 0 35.89376 29.07648 65.05728 64.93184 65.05728 35.86048 0 64.93952-29.16352 64.93952-65.05728 0-35.92704-29.07904-65.03936-64.93952-65.03936zM576 760.064h409.6v46.08H576z" fill="#040000" p-id="1791"></path></svg>