<?xml version="1.0" standalone="no"?><!DOCTYPE svg PUBLIC "-//W3C//DTD SVG 1.1//EN"
    "http://www.w3.org/Graphics/SVG/1.1/DTD/svg11.dtd">
<svg t="1693076476349" class="icon" viewBox="0 0 1024 1024" version="1.1"
    xmlns="http://www.w3.org/2000/svg" p-id="12285" xmlns:xlink="http://www.w3.org/1999/xlink"
    width="32" height="32">
    <path
        d="M814.29 136.567H207.664c-55.752 0-101.274 13.3-101.274 56.776v26.086h808.663v-26.086c0.511-42.965-45.011-56.776-100.763-56.776"
        p-id="12286" fill="#000000"></path>
    <path
        d="M723.245 191.808l-19.948-140.66c-3.58-27.62-29.667-50.125-57.287-50.125H376.456c-28.132 0-53.707 22.505-57.799 50.126l-19.948 141.17c-3.58 27.621 15.856 22.506 43.477 22.506h337.07c28.133-0.511 47.57 4.604 43.989-23.017z m-360.6-28.643L377.99 51.66h265.463l15.344 111.505H362.645zM831.17 282.342H190.785c-36.827 0-64.959 30.177-61.378 67.005l55.24 607.648c3.58 36.827 36.316 67.005 73.655 67.005h505.35c36.828 0 70.074-30.178 73.655-67.005l55.24-607.137c3.58-36.827-24.04-67.516-61.378-67.516zM376.456 953.415H245.514l-43.476-592.816h174.418v592.816z m221.474 0H423.512V360.599H597.93v592.816z m177.487 0H646.01V360.599h172.883l-43.476 592.816z"
        p-id="12287" fill="#000000"></path>
</svg>