<?xml version="1.0" standalone="no"?><!DOCTYPE svg PUBLIC "-//W3C//DTD SVG 1.1//EN" "http://www.w3.org/Graphics/SVG/1.1/DTD/svg11.dtd"><svg t="1714504594014" class="icon" viewBox="0 0 1024 1024" version="1.1" xmlns="http://www.w3.org/2000/svg" p-id="18338" xmlns:xlink="http://www.w3.org/1999/xlink" width="32" height="32"><path d="M85.902222 113.777778h853.333334a28.444444 28.444444 0 0 0 0-56.888889h-853.333334a28.444444 28.444444 0 1 0 0 56.888889zM938.666667 910.222222h-853.333334a28.444444 28.444444 0 0 0 0 56.888889h853.333334a28.444444 28.444444 0 0 0 0-56.888889zM85.333333 540.444444h170.666667a28.444444 28.444444 0 0 0 0-56.888888h-170.666667a28.444444 28.444444 0 0 0 0 56.888888zM938.666667 483.555556h-170.666667a28.444444 28.444444 0 0 0 0 56.888888h170.666667a28.444444 28.444444 0 0 0 0-56.888888z" p-id="18339"></path><path d="M733.297778 290.133333a28.444444 28.444444 0 0 0-39.822222 0L512 471.608889 331.093333 290.133333a28.444444 28.444444 0 0 0-39.822222 0 28.444444 28.444444 0 0 0 0 40.391111L472.177778 512l-180.906667 180.906667a27.875556 27.875556 0 1 0 39.822222 39.822222L512 551.822222l180.906667 180.906667a27.875556 27.875556 0 0 0 39.822222-39.822222L552.391111 512l180.906667-180.906667a28.444444 28.444444 0 0 0 0-40.96z" p-id="18340"></path></svg>