<?xml version="1.0" standalone="no"?><!DOCTYPE svg PUBLIC "-//W3C//DTD SVG 1.1//EN" "http://www.w3.org/Graphics/SVG/1.1/DTD/svg11.dtd"><svg t="1730988753217" class="icon" viewBox="0 0 1024 1024" version="1.1" xmlns="http://www.w3.org/2000/svg" p-id="11076" xmlns:xlink="http://www.w3.org/1999/xlink" width="96" height="96"><path d="M742.4 768h-179.2v-56.32c102.4-23.04 179.2-115.2 179.2-225.28 0-71.68-33.28-135.68-87.04-179.2 51.2-43.52 87.04-107.52 87.04-179.2 0-28.16-23.04-51.2-51.2-51.2s-51.2 23.04-51.2 51.2c0 71.68-56.32 128-128 128s-128-56.32-128-128c0-28.16-23.04-51.2-51.2-51.2s-51.2 23.04-51.2 51.2c0 71.68 33.28 135.68 87.04 179.2-51.2 43.52-87.04 107.52-87.04 179.2 0 110.08 76.8 202.24 179.2 225.28V768h-179.2c-28.16 0-51.2 23.04-51.2 51.2s23.04 51.2 51.2 51.2h179.2v51.2c0 28.16 23.04 51.2 51.2 51.2s51.2-23.04 51.2-51.2v-51.2h179.2c28.16 0 51.2-23.04 51.2-51.2s-23.04-51.2-51.2-51.2zM384 486.4c0-71.68 56.32-128 128-128s128 56.32 128 128-56.32 128-128 128-128-56.32-128-128z" p-id="11077"></path></svg>