<?xml version="1.0" standalone="no"?><!DOCTYPE svg PUBLIC "-//W3C//DTD SVG 1.1//EN" "http://www.w3.org/Graphics/SVG/1.1/DTD/svg11.dtd"><svg t="1729591455603" class="icon" viewBox="0 0 1024 1024" version="1.1" xmlns="http://www.w3.org/2000/svg" p-id="4362" xmlns:xlink="http://www.w3.org/1999/xlink" width="32" height="32"><path d="M979 480.3c-6.7-99.2-43.7-191.9-107-268.1-9.9-11.9-24.4-18.7-39.9-18.7-15 0-29.3 6.5-39.1 17.8l-0.1 0.1c-1.8 2-3.3 4.1-4.7 6.3v-54.3c0.9-18.6-8.1-36.3-23.8-46.4C689 68.5 601.8 42.8 512.3 42.8c-10.6 0-21.4 0.4-32.1 1.1-63 4.3-123.4 20.8-179.3 49.1-54 27.4-101.7 64.5-141.6 110.4-40 45.9-70.2 98.2-90 155.6C48.9 418.4 40.7 480.5 45 543.7c8.1 119.4 60.7 230.1 148.1 311.6 87 81.2 200.2 125.9 318.6 125.9 10.6 0 21.4-0.4 32-1.1 63-4.3 123.4-20.8 179.3-49.1 54-27.4 101.7-64.5 141.6-110.4 40-45.9 70.2-98.2 90-155.6 20.5-59.4 28.7-121.5 24.4-184.7zM856.3 631.1c-4.2 12.3-9.1 24.2-14.6 35.9H735.5c-0.3-2.9-0.8-5.8-1.5-8.7-3.6-13.4-12.2-24.6-24.2-31.6l-109.6-63.3c-7.9-4.6-16.9-7-26-7h-1.6c-9.1 0-18.1 2.4-26 7L326.2 690.8c-15.6 9-25.3 25.1-26 43.1v4c0.7 18 10.4 34.1 26 43.1l128 73.9c7.9 4.6 16.9 7 26 7 12.8 0 25.4-4.8 34.9-13.4l55.3-31.9c24.8-14.3 33.4-46.2 19-71-9.3-16-26.5-26-45.1-26-9.1 0-18.1 2.4-26 7L479 749.1l-23-13.3 117.3-67.7 84.4 48.7c7.9 4.6 16.9 7 26 7 18.5 0 35.8-10 45.1-26 2-3.5 3.6-7.1 4.7-10.8h98.2c-12.6 23.2-27.8 45-45.4 65.2-31.1 35.7-68.2 64.6-110.2 85.9-43.4 22-90.3 34.8-139.4 38.2-8.4 0.6-16.9 0.9-25.2 0.9-40.3 0-80-6.7-118.1-19.8-44.5-15.4-85.1-39-120.8-70.2-35.7-31.2-64.5-68.4-85.8-110.5-8.9-17.6-16.2-35.7-22.1-54.3h71.5c1 12.1 6.1 23.4 14.7 32.2 9.5 9.7 22.3 15.3 35.9 15.6H288.7c8.9-0.1 17.7-2.5 25.5-7L442 589.4c24.8-14.3 33.4-46.2 19-71-9.3-16-26.5-26-45.1-26-9.1 0-18.1 2.4-26 7l-50 28.9V520l102-58.9c12-6.9 20.6-18.2 24.2-31.6 3.6-13.4 1.8-27.4-5.2-39.5-9.3-16-26.5-26-45.1-26-9.1 0-18.1 2.4-26 7l-50 28.9v-7.3l102-58.9c24.8-14.3 33.4-46.2 19-71-9.3-16-26.5-26-45.1-26-9.1 0-18.1 2.4-26 7l-127.8 73.8c-6.2 3.6-11.5 8.3-15.8 14.1-6.8 9.1-10.4 19.9-10.4 31.2v239.8h-77c-5.4-21.3-8.9-43.2-10.4-65.6-3.3-49.2 3-97.6 18.9-143.8 15.4-44.6 38.9-85.4 70.1-121.1 31.1-35.7 68.2-64.6 110.2-85.9 43.4-22 90.3-34.8 139.4-38.2 8.4-0.6 16.9-0.9 25.2-0.9 40.3 0 80 6.7 118.1 19.8 18.5 6.4 36.5 14.3 53.6 23.6v172.4l-94.3-163.4c-8.5-15.8-24.1-25.9-41.9-27.3h-0.6c-0.5 0-1.1-0.1-1.6-0.1h-4.9c-0.6 0-1.2 0.1-1.8 0.1-0.3 0-0.6 0.1-0.9 0.1-0.6 0.1-1.2 0.1-1.8 0.2-0.3 0-0.6 0.1-0.8 0.1-0.6 0.1-1.1 0.2-1.7 0.3 0 0-0.7 0.1-0.9 0.2-0.5 0.1-1.1 0.2-1.5 0.4-0.4 0.1-0.7 0.2-1 0.3-0.5 0.1-1 0.3-1.5 0.4-0.4 0.1-0.7 0.2-1.1 0.3-0.4 0.1-0.9 0.3-1.4 0.5-0.4 0.1-0.7 0.3-1.1 0.4-0.4 0.2-0.8 0.3-1.2 0.5-0.4 0.1-0.7 0.3-1.1 0.5-0.4 0.2-0.8 0.4-1.2 0.5h-0.1c-0.3 0.2-0.7 0.3-1 0.5-0.4 0.2-0.9 0.4-1.3 0.7-0.3 0.1-0.6 0.3-0.8 0.5-0.3 0.1-0.5 0.3-0.8 0.5-0.3 0.2-0.6 0.3-0.9 0.5l-0.4 0.2c-15.9 9.8-25.3 27.3-24.8 46v253.9c0 28.7 23.3 52 52 52s52-23.3 52-52v-61.4l94.9 164.4c9.3 16 26.5 26 45.1 26 5.1 0 10.2-0.8 15.1-2.2 0.3-0.1 0.7-0.2 1.1-0.3l0.3-0.1c21.4-7 35.7-26.9 35.7-49.4V273.4c1.2 1.9 2.5 3.7 4 5.4 17.5 21 32.6 44.1 45 68.7 22 43.6 34.8 90.7 38.2 139.9 3.8 49.2-2.6 97.6-18.5 143.7z" fill="#ffffff" p-id="4363"></path><path d="M400.2 260.7l-127.8 73.8c-4 2.3-7.2 5.3-9.8 8.7-4 5.4-6.4 12-6.4 19.3V618c0 17.5 14 31.6 31.3 32h1c5.4 0 10.8-1.4 15.8-4.3l127.8-73.8c15.3-8.8 20.5-28.4 11.7-43.7-8.8-15.3-28.4-20.5-43.7-11.7l-80 46.2v-54.5l112-64.7c15.3-8.8 20.5-28.4 11.7-43.7-8.8-15.3-28.4-20.5-43.7-11.7l-80 46.2v-53.5l112-64.7c15.3-8.8 20.5-28.4 11.7-43.7-8.7-15.3-28.3-20.6-43.6-11.7zM573.3 645l94.4 54.5c15.3 8.8 34.9 3.6 43.7-11.7 8.8-15.3 3.6-34.9-11.7-43.7l-109.6-63.3c-5.3-3.1-11.1-4.4-16.8-4.3-5.7-0.1-11.5 1.2-16.8 4.3L336.2 708.1c-9.9 5.7-15.6 16-16 26.7v2.2c0.4 10.7 6 20.9 16 26.7l128 73.9c12.9 7.4 28.8 4.9 38.8-5.2l57.4-33.1c15.3-8.8 20.5-28.4 11.7-43.7-8.8-15.3-28.4-20.5-43.7-11.7L479 772.2l-63-36.3L573.3 645z" fill="#ffffff" p-id="4364"></path><path d="M959.1 481.7c-6.7-98-44.2-186.5-102.4-256.7-12.6-15.1-35.7-15.3-48.7-0.5-10.3 11.9-10.5 29.4-0.4 41.5 18.4 22.2 34.3 46.4 47.4 72.4 23.2 46 36.7 95.6 40.3 147.6 3.5 51.9-3.2 102.9-20 151.6-16.2 47.1-41.1 90-73.9 127.7-32.8 37.7-71.9 68.2-116.2 90.6-45.8 23.2-95.3 36.8-147 40.3s-102.6-3.2-151.1-20c-46.9-16.2-89.8-41.2-127.4-74.1-37.6-32.9-68.1-72.1-90.5-116.6-23.2-46-36.7-95.6-40.3-147.6-3.5-51.9 3.2-102.9 20-151.6 16.2-47.1 41.1-90 73.9-127.7 32.8-37.7 71.9-68.2 116.2-90.6 45.8-23.2 95.3-36.8 147-40.3s102.6 3.2 151.1 20c23.4 8.1 45.8 18.4 67.1 30.7v258.7L572.3 208.9c-5-9.5-14.6-16.2-25.9-17h-4.3c-0.4 0-0.7 0-1.1 0.1-0.2 0-0.3 0-0.5 0.1-0.4 0-0.7 0.1-1.1 0.1-0.2 0-0.3 0-0.5 0.1-0.3 0.1-0.7 0.1-1 0.2-0.2 0-0.4 0.1-0.5 0.1-0.3 0.1-0.7 0.1-1 0.2-0.2 0-0.4 0.1-0.6 0.1l-0.9 0.3c-0.2 0.1-0.4 0.1-0.6 0.2-0.3 0.1-0.6 0.2-0.8 0.3-0.2 0.1-0.4 0.2-0.7 0.2-0.3 0.1-0.5 0.2-0.8 0.3-0.2 0.1-0.5 0.2-0.7 0.3-0.3 0.1-0.5 0.2-0.8 0.3-0.2 0.1-0.4 0.2-0.7 0.3-0.3 0.1-0.5 0.3-0.8 0.4l-0.6 0.3c-0.2 0.1-0.3 0.2-0.5 0.3-0.1 0.1-0.3 0.2-0.4 0.3-0.1 0.1-0.2 0.1-0.3 0.2-10.2 6.2-15.7 17.3-15.2 28.6v254.2c0 17.7 14.3 32 32 32s32-14.3 32-32V343.3l132.3 229.1c7.6 13.1 23.1 18.9 37 14.6 0.2-0.1 0.4-0.1 0.7-0.2 0.1 0 0.2-0.1 0.3-0.1 12.8-4.2 22-16.2 22-30.4V162.7c0.7-11.1-4.4-22.4-14.6-29-78.1-50.2-172.3-76.6-272-69.9-247 16.8-433.6 231-416.8 478.5 16.8 247.5 230.6 434.5 477.5 417.8s433.5-230.9 416.7-478.4z" fill="#ffffff" p-id="4365"></path></svg>