<?xml version="1.0" standalone="no"?><!DOCTYPE svg PUBLIC "-//W3C//DTD SVG 1.1//EN"
    "http://www.w3.org/Graphics/SVG/1.1/DTD/svg11.dtd">
<svg t="1693051994375" class="icon" viewBox="0 0 1024 1024" version="1.1"
    xmlns="http://www.w3.org/2000/svg" p-id="9599" xmlns:xlink="http://www.w3.org/1999/xlink"
    width="32" height="32">
    <path
        d="M324.4 172.8c28.277 0 51.2 22.923 51.2 51.2v230.4h-61.44V234.24H181.04v696.32h133.12V761.6h61.439l0.001 179.2c0 28.277-22.923 51.2-51.2 51.2H170.8c-28.277 0-51.2-22.923-51.2-51.2V224c0-28.277 22.923-51.2 51.2-51.2h153.6z m512 0c28.277 0 51.2 22.923 51.2 51.2v716.8c0 28.277-22.923 51.2-51.2 51.2H682.8c-28.277 0-51.2-22.923-51.2-51.2V761.6h61.439l0.001 168.96h133.12V234.24H693.04l-0.001 220.16H631.6V224c0-28.277 22.923-51.2 51.2-51.2h153.6z"
        fill="#000000" p-id="9600"></path>
    <path
        d="M375.6 638.72h256c16.966 0 30.72-13.754 30.72-30.72s-13.754-30.72-30.72-30.72h-256c-16.966 0-30.72 13.754-30.72 30.72s13.754 30.72 30.72 30.72z"
        fill="#000000" p-id="9601"></path>
    <path
        d="M534.32 736V480c0-16.966-13.754-30.72-30.72-30.72s-30.72 13.754-30.72 30.72v256c0 16.966 13.754 30.72 30.72 30.72s30.72-13.754 30.72-30.72z"
        fill="#000000" p-id="9602"></path>
    <path
        d="M350 148.23l121.011 2.063V77.388c0-17.998 14.59-32.588 32.589-32.588 17.998 0 32.588 14.59 32.588 32.588v74.016l121.012 2.062L500.919 300.8 350 148.23z"
        fill="#000000" p-id="9603"></path>
</svg>