<?xml version="1.0" standalone="no"?><!DOCTYPE svg PUBLIC "-//W3C//DTD SVG 1.1//EN"
    "http://www.w3.org/Graphics/SVG/1.1/DTD/svg11.dtd">
<svg t="1693051348280" class="icon" viewBox="0 0 1024 1024" version="1.1"
    xmlns="http://www.w3.org/2000/svg" p-id="8298" width="32" height="32"
    xmlns:xlink="http://www.w3.org/1999/xlink">
    <path
        d="M332.4 867.2c28.277 0 51.2-22.923 51.2-51.2V585.6h-61.44v220.16H189.04V109.44h133.12V278.4h61.439l0.001-179.2c0-28.277-22.923-51.2-51.2-51.2H178.8c-28.277 0-51.2 22.923-51.2 51.2V816c0 28.277 22.923 51.2 51.2 51.2h153.6z m512 0c28.277 0 51.2-22.923 51.2-51.2V99.2c0-28.277-22.923-51.2-51.2-51.2H690.8c-28.277 0-51.2 22.923-51.2 51.2v179.2h61.439l0.001-168.96h133.12v696.32H701.04l-0.001-220.16H639.6V816c0 28.277 22.923 51.2 51.2 51.2h153.6z"
        fill="#000000" p-id="8299"></path>
    <path
        d="M383.6 401.28h256c16.966 0 30.72 13.754 30.72 30.72s-13.754 30.72-30.72 30.72h-256c-16.966 0-30.72-13.754-30.72-30.72s13.754-30.72 30.72-30.72z"
        fill="#000000" p-id="8300"></path>
    <path
        d="M542.32 304v256c0 16.966-13.754 30.72-30.72 30.72s-30.72-13.754-30.72-30.72V304c0-16.966 13.754-30.72 30.72-30.72s30.72 13.754 30.72 30.72z"
        fill="#000000" p-id="8301"></path>
    <path
        d="M358 891.77l121.011-2.063v72.905c0 17.998 14.59 32.588 32.589 32.588 17.998 0 32.588-14.59 32.588-32.588v-74.016l121.012-2.062L508.919 739.2 358 891.77z"
        fill="#000000" p-id="8302"></path>
</svg>