<?xml version="1.0" standalone="no"?><!DOCTYPE svg PUBLIC "-//W3C//DTD SVG 1.1//EN" "http://www.w3.org/Graphics/SVG/1.1/DTD/svg11.dtd"><svg t="1714385891606" class="icon" viewBox="0 0 1024 1024" version="1.1" xmlns="http://www.w3.org/2000/svg" p-id="16084" xmlns:xlink="http://www.w3.org/1999/xlink" width="32" height="32"><path d="M879.82 288.7L531.4 87.54a32.82 32.82 0 0 0-32.72 0L150.26 288.7A32.81 32.81 0 0 0 133.9 317v402.35a16.36 16.36 0 0 0 32.72 0V317L515 115.87 863.45 317v402.35L515 920.51a16.36 16.36 0 1 0 16.36 28.34l348.46-201.17a32.81 32.81 0 0 0 16.36-28.33V317a32.82 32.82 0 0 0-16.36-28.3z" fill="#B49F7A" p-id="16085"></path><path d="M531.4 850.57v-323l285.12-165.02a16.36 16.36 0 0 0-16.39-28.32L515 499.29 236.13 337.82a16.36 16.36 0 0 0-16.39 28.32l278.94 161.48v323a16.36 16.36 0 1 0 32.72 0z" fill="#B49F7A" p-id="16086"></path></svg>