<?xml version="1.0" standalone="no"?><!DOCTYPE svg PUBLIC "-//W3C//DTD SVG 1.1//EN" "http://www.w3.org/Graphics/SVG/1.1/DTD/svg11.dtd"><svg t="1714382034421" class="icon" viewBox="0 0 1024 1024" version="1.1" xmlns="http://www.w3.org/2000/svg" p-id="8121" xmlns:xlink="http://www.w3.org/1999/xlink" width="32" height="32"><path d="M512 912c220.914 0 400-179.086 400-400S732.914 112 512 112 112 291.086 112 512s179.086 400 400 400z m0 48C264.576 960 64 759.424 64 512S264.576 64 512 64s448 200.576 448 448-200.576 448-448 448zM130.76 324.244l-19.498-13.994 27.988-38.996 19.498 13.994c26.536 19.044 63.698 34.125 111.39 45.078C306.079 218.463 378.806 135.016 488 81.212V68h48v17.107c104.846 53.874 174.968 135.94 210.068 245.058 47.357-10.94 84.286-25.966 110.693-44.917l19.498-13.994 27.987 38.996-19.498 13.994c-31.432 22.558-73.474 39.933-126.225 52.296 9.255 42.294 13.89 88.132 13.89 137.46 0 41.826-3.332 81.142-9.988 117.917 54.675 12.272 98.167 29.609 130.585 52.183l19.695 13.714-27.429 39.391-19.696-13.715c-27.15-18.905-65.116-33.884-113.796-44.777C718.93 797.406 646.884 885.916 536 942.893V956h-18.511l-1.908 3.997-7.452-3.557-7.452 3.557L498.77 956H488v-9.212c-115.323-56.824-189.97-146.711-223.564-268.215-48.983 10.904-87.16 25.93-114.426 44.917l-19.696 13.715-27.429-39.391L122.58 684.1c32.545-22.662 76.25-40.046 131.227-52.327-6.638-36.733-9.962-76.002-9.962-117.773 0-49.263 4.623-95.046 13.854-137.294-53.086-12.373-95.365-29.802-126.938-52.462zM536 609.49c67.91 0.957 127.653 5.43 179.299 13.529 6.08-33.794 9.114-70.122 9.114-109.019 0-46.368-4.313-89.086-12.955-128.213C660.927 394.002 602.462 398.55 536 399.54V609.49z m162.564-270.264C669.313 252.583 615.196 186.399 536 139.861v211.671c61.886-0.953 116.094-5.09 162.564-12.306z m-393.79 46.679C296.15 425 291.845 467.678 291.845 514c0 38.858 3.03 75.152 9.097 108.917 53.62-8.365 115.948-12.835 187.058-13.527V399.646c-69.664-0.714-130.716-5.254-183.226-13.741zM488 135.42c-83.455 46.75-140.157 114.424-170.342 203.916 48.428 7.475 105.231 11.616 170.342 12.306V135.42z m48 752.719c84.845-49.857 140.906-122.264 168.444-218.22-48.065-7.312-104.235-11.488-168.444-12.422v230.642zM311.787 669.823C340.143 768.715 398.786 842.603 488 892.58V657.393c-67.437 0.679-126.2 4.861-176.213 12.43z" fill="#666666" p-id="8122"></path></svg>