<?xml version="1.0" standalone="no"?><!DOCTYPE svg PUBLIC "-//W3C//DTD SVG 1.1//EN"
    "http://www.w3.org/Graphics/SVG/1.1/DTD/svg11.dtd">
<svg t="1693416791257" class="icon" viewBox="0 0 1024 1024" version="1.1"
    xmlns="http://www.w3.org/2000/svg" p-id="11311" xmlns:xlink="http://www.w3.org/1999/xlink"
    width="32" height="32">
    <path
        d="M511.4 955.5c-68.2 0-135.7-18.1-195.1-52.4-1.2-0.7-2.4-1.4-3.5-2.1l24.4-41.3c1 0.6 2.1 1.2 3.1 1.8 52.1 30.1 111.3 46 171.2 46 60 0 119.3-15.8 171.4-45.7l23.9 41.6c-59.5 34.1-127 52.1-195.4 52.1z m391.4-389.7l-48-0.2v-0.9c0-58.9-15.3-117.2-44.1-168.6-29.7-52.8-73.3-97.1-125.9-127.8l24.2-41.4c60 35.1 109.7 85.5 143.5 145.8 32.9 58.6 50.3 125 50.3 192.1v1z m-734.2-4.4l-48-0.4c0.5-67.2 18.7-133.6 52.4-192.1 34.8-60.4 85.1-110.3 145.4-144.5l23.7 41.7c-52.9 30-97 73.8-127.6 126.8-29.5 51.4-45.4 109.6-45.9 168.5zM799.5 811.3c-56.8 0-103-46.2-103-103s46.2-103 103-103 103 46.2 103 103-46.2 103-103 103z m0-158c-30.3 0-55 24.7-55 55s24.7 55 55 55 55-24.7 55-55-24.6-55-55-55zM223.9 811.3c-56.8 0-103-46.2-103-103s46.2-103 103-103 103 46.2 103 103-46.2 103-103 103z m0-158c-30.3 0-55 24.7-55 55s24.7 55 55 55 55-24.7 55-55-24.7-55-55-55zM511.7 283.6c-56.8 0-103-46.2-103-103s46.2-103 103-103 103 46.2 103 103-46.2 103-103 103z m0-158c-30.3 0-55 24.7-55 55s24.7 55 55 55 55-24.7 55-55-24.7-55-55-55z"
        fill="#000000" p-id="11312"></path>
</svg>