<?xml version="1.0" standalone="no"?><!DOCTYPE svg PUBLIC "-//W3C//DTD SVG 1.1//EN" "http://www.w3.org/Graphics/SVG/1.1/DTD/svg11.dtd"><svg t="1730195621147" class="icon" viewBox="0 0 1024 1024" version="1.1" xmlns="http://www.w3.org/2000/svg" p-id="10206" xmlns:xlink="http://www.w3.org/1999/xlink" width="32" height="32"><path d="M525.804019 727.012374c17.407339 0 34.302696 7.167728 47.102211 20.479221l83.452828 87.548673c19.455261 19.967241 25.599027 50.174093 14.847436 77.821043-27.646949 68.605393-92.156498 112.63572-163.321794 111.099778-76.797082 0-141.818611-50.174093-150.52228-135.162863-1.535942-35.326658 22.015163-66.04549 54.781919-72.189257l5.119805-0.511981 1.023961-4.607825c13.311494-51.710035 44.542307-80.892926 98.300265-83.964809H519.660253l6.143766-0.51198z m-333.811315 58.365782c5.631786 2.047922 10.239611 6.655747 12.287533 12.799513l17.407339 56.31786 53.757957 18.4313c10.239611 3.583864 15.871397 14.847436 12.287533 25.599027-2.047922 6.143767-6.655747 11.263572-12.287533 12.799514l-53.757957 18.431299-17.407339 56.31786c-3.583864 10.751591-14.335455 16.383377-24.575066 12.799514-5.631786-2.047922-10.239611-6.655747-12.287533-12.799514l-17.407338-56.31786-53.757958-18.431299c-10.239611-3.583864-15.871397-14.847436-12.287533-25.599028 2.047922-6.143767 6.655747-11.263572 12.287533-12.799513l53.757958-18.4313 17.407338-56.31786c3.583864-10.239611 14.335455-16.383377 24.575066-12.799513z m322.547743 45.054288c-1.535942 1.535942-2.047922 5.119805-3.071883 11.775552l-0.51198 2.559903v3.583864c-3.071883 20.479222-5.631786 31.230813-14.335456 42.494385l-4.095844 4.607825c-4.607825 5.631786-10.239611 10.239611-15.359416 13.311494l-5.119806 3.071883 1.023961 1.023961c7.679708 5.119805 17.407339 8.191689 29.182891 9.21565l7.167728 0.511981c24.063086 0.511981 47.10221-10.751591 61.437665-29.182891l1.023961-1.535942-57.341821-61.437665z m414.192261-465.902296h-1.023961 7.679708c15.871397 1.023961 31.230813 6.143767 45.054288 15.359416l6.655747 5.119806c67.069451 55.293899 39.422502 129.019097-51.198054 246.774622-11.263572 14.847436-22.527144 28.670911-33.278736 41.982405-23.551105 28.15893-47.10221 55.805879-72.189256 82.428868l-23.551105 25.087046-6.655748 6.655747-2.047922 2.047923c-16.383377 17.407339-38.910521 27.134969-62.461626 27.134968s-46.078249-9.72763-62.973607-27.646949l-56.829841-60.413704c-34.302696-36.350619-34.302696-94.716401-1.023961-130.555039l2.559903-3.071883 7.167728-7.679709 6.143766-6.655747 7.679708-7.679708 9.727631-10.239611c25.087047-26.111008 50.686074-51.198054 76.797081-75.26114 12.799514-12.287533 27.134969-25.087047 43.518347-38.910521 63.997568-54.269938 110.075817-82.428868 152.570202-85.500751h6.655747l1.023961 1.023961zM97.788284 633.319934c4.607825 30.206852 12.287533 59.901724 22.527144 89.084615 9.21565 26.622988-3.071883 55.805879-28.15893 66.04549s-53.245977-3.583864-62.461626-29.694872c-12.799514-35.326658-21.503183-71.677276-27.134969-108.539875-4.607825-27.646949 13.311494-54.269938 39.422502-58.877763 26.622988-4.607825 51.710035 13.823475 56.31786 41.470424-1.023961-0.511981-0.511981 0-0.511981 0.511981z m824.800658-165.881697c-16.895358 4.607825-48.638152 24.575066-93.69244 62.461627-15.359416 12.799514-28.15893 24.063086-39.934483 35.326657-25.087047 23.039125-49.150132 47.10221-72.701237 71.677277l-14.847436 15.871397c-4.095844 4.095844-7.167728 7.679708-10.239611 10.751591l-0.51198 0.511981 44.542307 47.61419 2.559903-2.559903 23.039124-24.575066c24.063086-26.622988 47.614191-53.245977 68.605393-78.333023 10.239611-12.287533 20.479222-25.087047 31.230814-38.910521 32.766755-43.006366 52.733996-74.237179 60.925685-95.740362l1.535941-3.583864-0.51198-0.511981zM87.548673 342.003004c25.087047 9.21565 38.398541 38.398541 29.694872 65.021529-9.72763 28.670911-16.895358 58.877763-20.479222 89.596595-4.607825 27.646949-29.694872 46.59023-55.805879 41.982405-25.087047-4.607825-43.006366-29.182891-39.934483-55.805879C5.119805 445.423074 13.823475 408.560475 25.599027 373.233817c8.703669-26.622988 36.350619-40.446463 61.949646-31.230813z m156.666047-198.136471c17.919319 20.991202 15.871397 53.245977-4.095845 72.189257-22.015163 20.479222-41.982405 43.006366-59.389743 67.581432C163.833774 305.652385 133.114942 308.724268 112.63572 291.31693c-19.967241-16.895358-23.551105-47.10221-9.21565-69.117374 21.503183-30.206852 46.078249-57.341821 72.701237-82.428867 19.455261-19.455261 50.174093-17.407339 68.093413 4.095844zM824.288677 92.156498c29.694872 20.991202 57.341821 44.542307 82.428868 71.165296 18.94328 19.967241 18.94328 52.222016 0 72.189257-18.94328 19.967241-49.662113 19.967241-68.605393 0-20.479222-21.503183-43.518346-41.470424-67.581432-58.365783-22.527144-15.359416-28.670911-47.10221-13.823475-70.653315 14.847436-23.551105 45.054288-30.206852 67.581432-14.335455zM470.510121 50.686074c5.631786 27.646949-10.751591 54.781918-36.8626 60.925685-28.670911 6.655747-56.31786 16.383377-82.940848 29.182891-24.063086 12.287533-53.245977 1.023961-64.509548-24.063086s-1.023961-55.805879 23.039124-68.093412c0.511981-0.511981 1.023961-0.511981 2.047922-1.023961 32.766755-15.359416 66.557471-27.134969 101.372148-35.326658 26.111008-6.655747 52.222016 10.751591 57.853802 38.398541zM566.250482 0h5.631786c35.838638 3.071883 71.165296 9.72763 104.956012 19.967241 26.111008 7.167728 41.470424 35.326658 34.302697 62.461627-7.167728 27.134969-33.790716 43.518346-59.389744 36.350618-0.511981 0-1.023961-0.511981-1.535941-0.51198-28.15893-8.703669-56.82984-13.823475-86.012732-16.383378-26.622988-2.047922-46.59023-26.622988-44.542307-54.781918 1.535942-23.551105 18.94328-43.006366 40.958443-46.590229l5.631786-0.511981z" fill="#000000" p-id="10207"></path></svg>