<?xml version="1.0" standalone="no"?><!DOCTYPE svg PUBLIC "-//W3C//DTD SVG 1.1//EN" "http://www.w3.org/Graphics/SVG/1.1/DTD/svg11.dtd"><svg t="1714763835239" class="icon" viewBox="0 0 1024 1024" version="1.1" xmlns="http://www.w3.org/2000/svg" p-id="6798" width="32" height="32" xmlns:xlink="http://www.w3.org/1999/xlink"><path d="M728.177778 802.133333c-11.377778-17.066667-28.444444-17.066667-39.822222-11.377777-51.2 34.133333-113.777778 51.2-176.355556 51.2-170.666667 0-312.888889-130.844444-329.955556-295.822223h68.266667L170.666667 420.977778c-5.688889-5.688889-11.377778-5.688889-17.066667-5.688889-5.688889 0-17.066667 5.688889-17.066667 11.377778L51.2 546.133333h73.955556c17.066667 193.422222 182.044444 352.711111 386.844444 352.711111 73.955556 0 147.911111-17.066667 204.8-56.888888 17.066667-11.377778 17.066667-28.444444 11.377778-39.822223zM898.844444 500.622222c-5.688889-204.8-176.355556-375.466667-386.844444-375.466666-73.955556 0-147.911111 17.066667-210.488889 56.888888-11.377778 11.377778-17.066667 28.444444-5.688889 39.822223 5.688889 11.377778 22.755556 17.066667 39.822222 11.377777 51.2-34.133333 113.777778-51.2 176.355556-51.2 176.355556 0 324.266667 142.222222 329.955556 318.577778h-68.266667L853.333333 625.777778c5.688889 5.688889 11.377778 11.377778 17.066667 11.377778 5.688889 0 17.066667-5.688889 17.066667-11.377778l85.333333-125.155556h-73.955556z" fill="#0C76F2" p-id="6799"></path></svg>