<?xml version="1.0" standalone="no"?><!DOCTYPE svg PUBLIC "-//W3C//DTD SVG 1.1//EN"
    "http://www.w3.org/Graphics/SVG/1.1/DTD/svg11.dtd">
<svg t="1693180275396" class="icon" viewBox="0 0 1024 1024" version="1.1"
    xmlns="http://www.w3.org/2000/svg" p-id="7366" xmlns:xlink="http://www.w3.org/1999/xlink"
    width="32" height="32">
    <path
        d="M161.866441 1023.921309a48.07992 48.07992 0 1 1 0-96.081149h700.345808a48.07992 48.07992 0 0 1 0 96.081149z"
        fill="#000000" p-id="7367"></path>
    <path
        d="M512.196726 796.505648a53.194805 53.194805 0 0 1-9.678936-1.022977l-5.508338-1.652501a28.879428 28.879428 0 0 1-3.226312-1.022977l-2.596788-1.41643-3.934527-2.124645-1.809882-0.944286a48.394682 48.394682 0 0 1-7.318221-5.980481L169.971567 474.189195a48.00123 48.00123 0 0 1 67.909936-67.909936l226.156613 226.156613V48.07992a48.07992 48.07992 0 1 1 96.081149 0v584.355952l226.235304-226.235303a48.00123 48.00123 0 0 1 67.909936 67.909936L546.112349 782.26266a48.709444 48.709444 0 0 1-7.31822 5.980481l-1.337739 0.786906-2.124645 1.101667a38.637055 38.637055 0 0 1-4.642742 2.596788 20.45954 20.45954 0 0 1-2.596788 0.865596l-2.282025 0.629525-1.41643 0.472143a22.033351 22.033351 0 0 1-2.754169 0.865596 44.774917 44.774917 0 0 1-9.442865 0.944286z"
        fill="#000000" p-id="7368"></path>
</svg>