<?xml version="1.0" standalone="no"?><!DOCTYPE svg PUBLIC "-//W3C//DTD SVG 1.1//EN"
    "http://www.w3.org/Graphics/SVG/1.1/DTD/svg11.dtd">
<svg t="1694920470624" class="icon" viewBox="0 0 1024 1024" version="1.1"
    xmlns="http://www.w3.org/2000/svg" p-id="10811" width="32" height="32"
    xmlns:xlink="http://www.w3.org/1999/xlink">
    <path
        d="M915.911111 551.822222c-22.755556-17.066667-51.2-28.444444-73.955555-34.133333 17.066667-68.266667 22.755556-136.533333 5.688888-204.8-28.444444-125.155556-85.333333-216.177778-159.288888-267.377778-45.511111-28.444444-96.711111-45.511111-159.288889-45.511111-11.377778 0-28.444444 0-45.511111 5.688889-182.044444 22.755556-221.866667 182.044444-250.311112 295.822222-5.688889 34.133333-11.377778 62.577778-22.755555 85.333333C187.733333 449.422222 147.911111 489.244444 113.777778 523.377778 68.266667 568.888889 22.755556 608.711111 22.755556 682.666667c0 51.2 22.755556 102.4 62.577777 136.533333 56.888889 56.888889 153.6 85.333333 273.066667 85.333333h45.511111c11.377778 17.066667 28.444444 34.133333 51.2 51.2 51.2 45.511111 125.155556 68.266667 210.488889 68.266667 17.066667 0 39.822222 0 62.577778-5.688889 96.711111-17.066667 176.355556-62.577778 221.866666-136.533333 113.777778-193.422222 5.688889-301.511111-34.133333-329.955556zM130.844444 768c-22.755556-22.755556-39.822222-51.2-39.822222-85.333333 0-45.511111 22.755556-68.266667 68.266667-113.777778 39.822222-39.822222 85.333333-85.333333 113.777778-159.288889 11.377778-28.444444 17.066667-62.577778 28.444444-96.711111 28.444444-113.777778 51.2-221.866667 193.422222-244.622222h34.133334c85.333333 0 199.111111 45.511111 250.311111 261.688889 17.066667 62.577778 11.377778 125.155556-11.377778 187.733333-45.511111 11.377778-85.333333 34.133333-119.466667 56.888889-17.066667 11.377778-34.133333 22.755556-51.2 28.444444-28.444444 11.377778-56.888889 17.066667-85.333333 17.066667h-34.133333c-34.133333 0-73.955556 5.688889-108.088889 39.822222-28.444444 28.444444-39.822222 62.577778-39.822222 102.4 0 28.444444 5.688889 51.2 22.755555 79.644445-96.711111-5.688889-176.355556-28.444444-221.866667-73.955556z m750.933334 73.955556c-45.511111 73.955556-130.844444 96.711111-176.355556 102.4-17.066667 0-34.133333 5.688889-51.2 5.688888-68.266667 0-125.155556-17.066667-164.977778-51.2-56.888889-51.2-91.022222-102.4-91.022222-147.911111 0-17.066667 5.688889-34.133333 17.066667-45.511111 17.066667-17.066667 28.444444-17.066667 62.577778-17.066666h28.444444c34.133333 0 73.955556 0 113.777778-22.755556 22.755556-11.377778 39.822222-22.755556 56.888889-34.133333 39.822222-22.755556 73.955556-45.511111 108.088889-45.511111h11.377777c22.755556 0 45.511111 5.688889 68.266667 22.755555 56.888889 34.133333 96.711111 108.088889 17.066667 233.244445z"
        p-id="10812" fill="#000000"></path>
    <path
        d="M443.733333 358.4c0-17.066667-17.066667-34.133333-39.822222-34.133333-11.377778 0-17.066667 5.688889-22.755555 11.377777-11.377778 11.377778-11.377778 17.066667-11.377778 28.444445s0 102.4-73.955556 153.6c-11.377778 5.688889-17.066667 11.377778-17.066666 22.755555s0 17.066667 5.688888 28.444445 17.066667 17.066667 28.444445 17.066667c5.688889 0 11.377778 0 17.066667-5.688889 119.466667-79.644444 113.777778-221.866667 113.777777-221.866667zM739.555556 659.911111c-11.377778 0-17.066667 5.688889-22.755556 11.377778 0 0-51.2 45.511111-136.533333 56.888889-17.066667 0-34.133333 22.755556-28.444445 39.822222 0 17.066667 17.066667 28.444444 39.822222 28.444444h5.688889c96.711111-11.377778 159.288889-56.888889 176.355556-73.955555 17.066667-11.377778 17.066667-34.133333 5.688889-51.2-22.755556-11.377778-34.133333-11.377778-39.822222-11.377778z"
        p-id="10813" fill="#000000"></path>
</svg>