<?xml version="1.0" standalone="no"?><!DOCTYPE svg PUBLIC "-//W3C//DTD SVG 1.1//EN" "http://www.w3.org/Graphics/SVG/1.1/DTD/svg11.dtd"><svg t="1729011869154" class="icon" viewBox="0 0 1024 1024" version="1.1" xmlns="http://www.w3.org/2000/svg" p-id="12579" xmlns:xlink="http://www.w3.org/1999/xlink" width="32" height="32"><path d="M584.625231 856.497231a29.538462 29.538462 0 0 1-27.569231-22.331077l-69.316923-276.913231-276.795077-53.563077a29.538462 29.538462 0 0 1-23.630769-26.545231 29.499077 29.499077 0 0 1 19.140923-30.12923l560.994461-208.738462a29.696 29.696 0 0 1 10.279385-1.851077 29.538462 29.538462 0 0 1 20.637538 8.349539 29.538462 29.538462 0 0 1 7.325539 30.72l-191.842462 560.994461a29.577846 29.577846 0 0 1-27.923692 19.968z m5.632-133.632l139.342769-407.670154L325.632 465.526154l176.64 34.185846 72.585846-72.585846a29.538462 29.538462 0 0 1 41.747692 0 29.538462 29.538462 0 0 1 0 41.787077l-71.876923 71.876923z" fill="#FFFFFF" p-id="12580"></path></svg>