<?xml version="1.0" standalone="no"?><!DOCTYPE svg PUBLIC "-//W3C//DTD SVG 1.1//EN" "http://www.w3.org/Graphics/SVG/1.1/DTD/svg11.dtd"><svg t="1729010313523" class="icon" viewBox="0 0 1024 1024" version="1.1" xmlns="http://www.w3.org/2000/svg" p-id="8472" width="32" height="32" xmlns:xlink="http://www.w3.org/1999/xlink"><path d="M864.512 309.568a87.424 87.424 0 0 1 65.088 145.856l-352 392.512a87.424 87.424 0 0 1-130.176 0l-352-392.512a87.488 87.488 0 0 1 65.088-145.856h704z m0 59.84h-704a27.584 27.584 0 0 0-20.544 46.08l352 392.512 2.112 2.112 0.576 0.512c11.328 9.6 28.352 8.512 38.4-2.624l352-392.512a27.648 27.648 0 0 0-20.544-46.08z m65.664-247.424h0.704a29.888 29.888 0 0 1-0.64 59.84H94.08a29.888 29.888 0 0 1 0.64-59.84h835.392z" fill="#8D8E90" p-id="8473"></path></svg>