<?xml version="1.0" standalone="no"?><!DOCTYPE svg PUBLIC "-//W3C//DTD SVG 1.1//EN"
    "http://www.w3.org/Graphics/SVG/1.1/DTD/svg11.dtd">
<svg t="1705630548920" class="icon" viewBox="0 0 1024 1024" version="1.1"
    xmlns="http://www.w3.org/2000/svg" p-id="16104" width="32" height="32"
    xmlns:xlink="http://www.w3.org/1999/xlink">
    <path
        d="M737.4848 499.968a193.792 193.792 0 0 0 78.9504-156.1088c0-107.008-87.04-194.048-194.048-194.048s-194.048 87.04-194.048 194.048c0 63.9488 31.1296 120.7808 78.9504 156.1088-143.5648 48.2304-247.3472 183.9616-247.3472 343.552a30.72 30.72 0 0 0 61.44 0 301.312 301.312 0 0 1 300.9536-300.9536 301.312 301.312 0 0 1 300.9536 300.9536 30.72 30.72 0 0 0 61.44 0c0.1024-159.5904-103.68-295.3728-247.2448-343.552z m-115.0464-288.768a132.7616 132.7616 0 0 1 132.608 132.608 132.7616 132.7616 0 0 1-132.608 132.608 132.7616 132.7616 0 0 1-132.608-132.608 132.7104 132.7104 0 0 1 132.608-132.608z"
        fill="#303135" p-id="16105"></path>
    <path
        d="M357.3248 425.4208a79.5648 79.5648 0 0 1-112.384 0 79.5648 79.5648 0 0 1 45.6192-134.9632c24.7808-3.2768 49.1008 4.9152 66.7648 22.5792a30.72 30.72 0 0 0 43.4176-43.4176 139.9296 139.9296 0 0 0-118.272-40.0384 141.056 141.056 0 0 0-80.9472 239.3088l0.9216 0.8704a254.8224 254.8224 0 0 0-160.8704 236.544 30.72 30.72 0 0 0 61.44 0 193.2288 193.2288 0 0 1 193.024-193.024 30.0544 30.0544 0 0 0 14.336-3.584 140.3392 140.3392 0 0 0 90.4192-40.8576 30.72 30.72 0 0 0-43.4688-43.4176z"
        fill="#999999" p-id="16106"></path>
</svg>