<?xml version="1.0" standalone="no"?><!DOCTYPE svg PUBLIC "-//W3C//DTD SVG 1.1//EN"
    "http://www.w3.org/Graphics/SVG/1.1/DTD/svg11.dtd">
<svg t="1693054863465" class="icon" viewBox="0 0 1024 1024" version="1.1"
    xmlns="http://www.w3.org/2000/svg" p-id="18915" xmlns:xlink="http://www.w3.org/1999/xlink"
    width="32" height="32">
    <path
        d="M512 106.666667a405.333333 405.333333 0 1 0 405.333333 405.333333A405.333333 405.333333 0 0 0 512 106.666667z m0 768a362.666667 362.666667 0 1 1 362.666667-362.666667 362.666667 362.666667 0 0 1-362.666667 362.666667z"
        fill="#000000" p-id="18916"></path>
    <path
        d="M464 341.333333a21.333333 21.333333 0 0 0-21.333333 21.333334v128H298.666667v-128a21.333333 21.333333 0 0 0-42.666667 0v298.666666a21.333333 21.333333 0 0 0 42.666667 0v-128h144v128a21.333333 21.333333 0 0 0 42.666666 0V362.666667a21.333333 21.333333 0 0 0-21.333333-21.333334zM631.68 341.333333h-61.013333A37.546667 37.546667 0 0 0 533.333333 378.666667v266.666666A37.546667 37.546667 0 0 0 570.666667 682.666667h61.013333A157.866667 157.866667 0 0 0 789.333333 525.013333v-26.026666A157.866667 157.866667 0 0 0 631.68 341.333333zM746.666667 525.013333A115.2 115.2 0 0 1 631.68 640H576V384h55.68A115.2 115.2 0 0 1 746.666667 498.986667z"
        fill="#000000" p-id="18917"></path>
</svg>