<?xml version="1.0" standalone="no"?><!DOCTYPE svg PUBLIC "-//W3C//DTD SVG 1.1//EN" "http://www.w3.org/Graphics/SVG/1.1/DTD/svg11.dtd"><svg t="1730194960889" class="icon" viewBox="0 0 1072 1024" version="1.1" xmlns="http://www.w3.org/2000/svg" p-id="8001" width="33.5" height="32" xmlns:xlink="http://www.w3.org/1999/xlink"><path d="M766.870256 731.170344H272.946161c-41.574581 0-75.466902-33.892321-75.466902-75.466902V377.33451c0-41.574581 33.892321-75.466902 75.466902-75.466902h493.924095c41.574581 0 75.466902 33.892321 75.466902 75.466902v278.368932c-0.451898 41.574581-34.344219 75.466902-75.466902 75.466902zM272.946161 366.940865c-5.422771 0-10.845543 4.518976-10.845543 10.845543v278.368932c0 5.422771 4.518976 10.845543 10.845543 10.845543h493.924095c5.422771 0 10.845543-4.518976 10.845543-10.845543V377.786408c0-5.422771-4.518976-10.845543-10.845543-10.845543H272.946161z" p-id="8002"></path><path d="M1008.635481 552.218888c0.903795-12.653133 1.80759-25.306267 1.355693-38.863195 0-7.230362 0-15.364519-0.451898-22.594881l-1.355693-17.624007v-0.451898c-0.451898-4.067079-0.903795-8.134157-1.355692-12.653133 0-0.451898 0-0.903795-0.451898-1.355693-0.451898-4.067079-0.903795-8.586055-1.355693-13.105031v-0.903795c-2.259488-13.556929-4.067079-27.113857-7.230362-40.670785-26.210062-114.330097-90.379523-209.680494-175.788173-277.01324-29.373345-22.594881-60.554281-42.478376-93.994704-58.74669S659.770521 39.76699 623.618711 31.180936s-73.207414-12.201236-110.263018-12.201236l0.451897 78.630185h14.460724c63.265666 2.259488 123.819947 18.527802 178.047661 46.997352 0.451898 0.451898 0.903795 0.451898 0.903796 0.903796 4.970874 2.711386 9.48985 4.970874 14.008826 7.682259l0.451897 0.451898c14.008826 8.134157 27.565755 17.172109 40.218888 26.210062 0.903795 0.903795 1.80759 1.355693 2.711386 1.80759 4.067079 0.903795 10.393645 7.682259 14.008826 10.845543 4.518976 3.615181 9.48985 7.682259 14.008826 12.201235 9.48985 8.134157 17.624007 16.720212 25.758164 25.306267 16.720212 18.075905 32.084731 37.055605 45.64166 57.842895 31.632833 48.353045 51.064431 103.032657 61.458076 159.067961 3.615181 20.335393 6.326567 40.670786 5.874669 61.458076 0 2.711386-1.355693 40.218888-1.807591 40.218888l-59.650485-2.711386 92.639011 180.759047 110.263019-171.269197-64.169462-3.163283zM138.732568 334.856134L67.784643 300.511915C51.516328 334.404237 39.315093 368.748455 31.632833 405.352162l76.822595 17.624007c6.326567-30.27714 16.720212-60.554281 30.27714-88.120035zM108.455428 608.254192c-6.778464-30.729038-10.845543-61.458076-10.845543-92.639011l-78.630185 0.451898c0.451898 36.603707 4.518976 73.659312 12.653133 109.359223v0.903795l30.277141-7.230362 46.545454-10.845543zM139.184466 696.374228l-70.947926 34.344219c16.268314 33.440424 35.699912 65.073257 59.198588 93.994704l61.458076-49.25684c-19.883495-24.854369-36.151809-51.516328-49.708738-79.082083zM253.514563 189.345102L204.257723 127.887026C175.788173 150.933804 149.126214 177.595763 126.531333 206.517211l61.458076 49.25684c18.9797-24.402471 41.122683-46.997352 65.525154-66.428949zM607.350397 920.515446l17.624007 76.822595c36.151809-8.134157 71.399823-20.78729 104.840247-37.055605l-34.344219-70.947926c-28.017652 13.556929-56.9391 23.950574-88.120035 31.180936zM254.870256 840.529568l-49.25684 61.458075c29.373345 22.594881 60.554281 42.478376 93.994704 58.746691L334.404237 890.238305c-28.017652-13.556929-54.679612-30.27714-79.533981-49.708737zM774.100618 839.625772l49.25684 61.458076c28.921447-23.046778 55.131509-49.708738 77.72639-78.178288l-61.458076-49.25684c-18.9797 24.402471-41.122683 46.545455-65.525154 65.977052zM297.80053 68.688438l34.344218 70.947926c28.017652-13.556929 57.390997-23.950574 88.120036-31.180936L402.188879 31.180936c-36.151809 9.037952-71.399823 21.691086-104.388349 37.507502zM405.352162 997.789938c36.151809 8.134157 73.207414 12.201236 110.263019 12.201236V930.909091c-31.180936 0-62.361871-3.163283-92.639012-10.393645l-17.624007 77.274492z" p-id="8003"></path><path d="M313.616946 617.292145s58.294793-107.551633 105.744043-91.283319c47.44925 16.268314 42.026478 49.708738 72.755516 54.227714 30.729038 4.518976 59.650485-5.422771 82.697264-28.921447 22.594881-23.046778 69.140335-59.198588 96.70609-29.825243 32.536628 34.796117 53.775816 95.350397 53.775816 95.350397H313.616946z" p-id="8004"></path><path d="M728.910856 620.00353H310.001765l1.807591-3.163283c2.259488-4.518976 59.650485-108.907326 108.455428-92.187114 25.758164 8.586055 36.603707 23.046778 45.641659 34.344219 7.230362 9.941748 13.556929 17.624007 27.113857 19.883495 29.825243 4.518976 58.294793-5.422771 80.889674-28.46955 12.201236-12.653133 43.834069-41.574581 72.755516-41.57458h0.451897c10.845543 0 19.431598 4.067079 27.113857 12.201235 32.536628 34.796117 54.227714 95.350397 54.227715 96.254193l0.451897 2.711385z" p-id="8005"></path><path d="M558.093557 443.311562m-55.583407 0a55.583407 55.583407 0 1 0 111.166814 0 55.583407 55.583407 0 1 0-111.166814 0Z" p-id="8006"></path></svg>