<?xml version="1.0" standalone="no"?><!DOCTYPE svg PUBLIC "-//W3C//DTD SVG 1.1//EN" "http://www.w3.org/Graphics/SVG/1.1/DTD/svg11.dtd"><svg t="1730347373943" class="icon" viewBox="0 0 1024 1024" version="1.1" xmlns="http://www.w3.org/2000/svg" p-id="11046" width="96" height="96" xmlns:xlink="http://www.w3.org/1999/xlink"><path d="M896 0H128C57.58976 0 0 57.58976 0 128v768C0 966.41024 57.58976 1024 128 1024h768c70.41024 0 128-57.58976 128-128V128C1024 57.58976 966.41024 0 896 0zM512 787.21024c-44.78976 0-83.21024-6.41024-121.58976-19.21024-25.6 12.8-64 44.78976-76.8 51.2-25.6 12.8-19.21024-12.8-19.21024-12.8l12.8-76.8c-76.8-51.2-121.61024-134.38976-121.61024-223.98976 0-160.01024 147.21024-288.01024 326.41024-288.01024 108.81024 0 211.18976 51.2 268.8 121.61024L460.8 486.4s-25.6 12.8-51.2-6.38976l-51.2-38.4s-38.4-32.01024-19.21024 19.18976l51.2 115.2s6.41024 31.98976 44.81024 12.8c32.01024-12.8 268.8-159.98976 371.2-217.6 19.21024 38.4 31.98976 83.21024 31.98976 128 0 153.6-147.18976 288.01024-326.38976 288.01024z" fill="#48B338" p-id="11047"></path></svg>