<?xml version="1.0" standalone="no"?><!DOCTYPE svg PUBLIC "-//W3C//DTD SVG 1.1//EN"
    "http://www.w3.org/Graphics/SVG/1.1/DTD/svg11.dtd">
<svg t="1694679896499" class="icon" viewBox="0 0 1024 1024" version="1.1"
    xmlns="http://www.w3.org/2000/svg" p-id="21582" xmlns:xlink="http://www.w3.org/1999/xlink"
    width="32" height="32">
    <path
        d="M399.509504 368.119808V166.680576c-0.87552-11.331584-9.58976-18.31424-20.93056-18.31424H363.756544c-10.46528 0-20.05504 9.598976-20.05504 20.93056l0.87552 135.164928-231.960576-230.209536c-23.54688-26.1632-68.015104 14.8224-39.235584 40.111104L304.456704 342.832128l-131.673088 0.866304c-11.331584-0.866304-22.67136 6.982656-23.537664 20.05504v14.831616c0 11.331584 9.58976 20.921344 20.921344 20.921344l199.698432-0.866304h11.331584c5.23264 0 9.58976-1.750016 13.95712-5.23264 3.482624-3.49184 5.23264-8.72448 5.23264-14.8224l-1.750016-10.46528h0.872448z m229.344256 25.288704c4.35712 3.482624 8.715264 5.23264 13.947904 5.23264H654.142464l199.689216 0.866304c11.331584 0 20.93056-10.46528 20.93056-20.921344v-14.831616c-0.87552-13.072384-12.215296-20.921344-23.54688-20.05504l-131.673088-0.866304 231.085056-228.468736c28.770304-25.28768-15.69792-66.274304-39.2448-40.111104L679.430144 304.461824l0.866304-135.164928c0-11.331584-9.58976-20.93056-20.05504-20.93056H645.419008c-11.331584 0-20.05504 6.982656-20.93056 18.31424v201.439232h0.87552l-1.7408 10.46528c-0.002048 6.098944 1.738752 11.331584 5.230592 14.823424zM395.152384 629.726208c-4.366336-3.49184-8.72448-5.23264-13.95712-5.23264H369.86368l-199.698432-0.87552c-11.331584 0.87552-20.921344 9.58976-20.921344 20.93056v14.8224c0.866304 13.0816 12.20608 20.93056 23.537664 20.056064l131.673088 0.874496-231.07584 229.33504c-27.03872 25.288704 14.8224 66.274304 39.235584 40.111104l231.960576-231.07584-0.87552 136.031232c0 11.331584 9.58976 20.93056 20.05504 20.93056h14.8224c11.3408 0 20.05504-6.982656 20.93056-18.31424v-201.439232h-0.87552l1.750016-11.331584c0.003072-6.107136-1.747968-11.339776-5.229568-14.8224z m324.388864 50.576384l131.673088-0.874496c13.0816 0.874496 20.93056-5.23264 23.54688-17.439744v-17.43872c0-11.3408-9.598976-20.05504-20.93056-20.93056H654.14144h-13.0816c-4.35712 0-8.72448 2.61632-13.95712 6.974464-3.482624 3.49184-5.23264 8.72448-5.23264 14.8224l1.750016 10.46528h-0.87552v201.439232c0.87552 11.331584 9.58976 18.31424 20.93056 18.31424h15.69792c10.456064 0 20.05504-9.598976 20.05504-20.93056l-0.87552-134.289408 232.825856 229.33504c12.20608 8.72448 27.904 11.3408 39.2448 0 11.331584-11.331584 11.331584-28.770304 0-40.111104l-231.081984-229.336064z"
        fill="#000000" p-id="21583"></path>
</svg>